<svg width="399" height="200" viewBox="0 0 399 200" fill="none" xmlns="http://www.w3.org/2000/svg">
<rect x="42" width="272" height="168" rx="20" fill="white"/>
<rect x="61" y="23" width="234" height="50" rx="12" fill="#F2F2F2"/>
<path d="M78.296 40.518L79.736 40.356V46.08C80.096 45.84 80.45 45.63 80.798 45.45C81.158 45.27 81.524 45.114 81.896 44.982C82.268 44.838 82.628 44.766 82.976 44.766C83.468 44.766 83.876 44.826 84.2 44.946C84.536 45.054 84.806 45.24 85.01 45.504C85.214 45.768 85.358 46.116 85.442 46.548C85.538 46.98 85.586 47.52 85.586 48.168V54H84.146V48.33C84.146 47.97 84.14 47.652 84.128 47.376C84.116 47.088 84.062 46.848 83.966 46.656C83.882 46.452 83.744 46.296 83.552 46.188C83.372 46.08 83.114 46.026 82.778 46.026C82.466 46.026 82.13 46.098 81.77 46.242C81.41 46.374 81.068 46.53 80.744 46.71C80.42 46.89 80.084 47.1 79.736 47.34V54H78.296V40.518ZM88.1222 44.928L89.5622 44.766V54H88.1222V44.928ZM87.8882 42.354C87.8882 42.078 87.9782 41.85 88.1582 41.67C88.3502 41.478 88.5842 41.382 88.8602 41.382C89.1482 41.382 89.3882 41.478 89.5802 41.67C89.7842 41.85 89.8862 42.078 89.8862 42.354C89.8862 42.63 89.7842 42.864 89.5802 43.056C89.3882 43.236 89.1482 43.326 88.8602 43.326C88.5842 43.326 88.3502 43.236 88.1582 43.056C87.9782 42.864 87.8882 42.63 87.8882 42.354ZM99.2396 54.864C99.2396 55.308 99.1916 55.74 99.0956 56.16C98.9996 56.58 98.8136 56.952 98.5376 57.276C98.2736 57.612 97.8956 57.876 97.4036 58.068C96.9236 58.272 96.2876 58.374 95.4956 58.374C94.9916 58.362 94.5536 58.332 94.1816 58.284C93.8096 58.236 93.4556 58.164 93.1196 58.068C92.7836 57.984 92.4776 57.882 92.2016 57.762L92.5796 56.502C93.0476 56.706 93.5216 56.862 94.0016 56.97C94.4936 57.078 94.9316 57.132 95.3156 57.132C95.7356 57.132 96.1016 57.09 96.4136 57.006C96.7256 56.922 96.9836 56.778 97.1876 56.574C97.4036 56.382 97.5596 56.124 97.6556 55.8C97.7636 55.476 97.8176 55.074 97.8176 54.594V53.28C97.5656 53.448 97.3016 53.604 97.0256 53.748C96.7616 53.88 96.4736 53.994 96.1616 54.09C95.8616 54.186 95.5676 54.234 95.2796 54.234C94.1636 54.234 93.2816 53.844 92.6336 53.064C91.9856 52.272 91.6616 51.096 91.6616 49.536C91.6616 48.636 91.7996 47.886 92.0756 47.286C92.3636 46.674 92.7236 46.182 93.1556 45.81C93.5876 45.438 94.0616 45.174 94.5776 45.018C95.0936 44.85 95.5856 44.766 96.0536 44.766C96.6656 44.766 97.2236 44.82 97.7276 44.928C98.2436 45.024 98.7476 45.102 99.2396 45.162V54.864ZM95.4416 52.974C95.7056 52.974 95.9756 52.926 96.2516 52.83C96.5276 52.734 96.7916 52.62 97.0436 52.488C97.3076 52.356 97.5656 52.2 97.8176 52.02V46.278C97.6736 46.242 97.5056 46.2 97.3136 46.152C97.1456 46.128 96.9536 46.104 96.7376 46.08C96.5216 46.044 96.2936 46.026 96.0536 46.026C95.5496 46.026 95.1176 46.116 94.7576 46.296C94.3976 46.476 94.0976 46.722 93.8576 47.034C93.6296 47.346 93.4616 47.712 93.3536 48.132C93.2456 48.552 93.1916 48.996 93.1916 49.464C93.1916 49.884 93.2336 50.304 93.3176 50.724C93.4136 51.144 93.5576 51.522 93.7496 51.858C93.9416 52.194 94.1756 52.464 94.4516 52.668C94.7276 52.872 95.0576 52.974 95.4416 52.974ZM101.833 44.928L103.273 44.766V54H101.833V44.928ZM101.599 42.354C101.599 42.078 101.689 41.85 101.869 41.67C102.061 41.478 102.295 41.382 102.571 41.382C102.859 41.382 103.099 41.478 103.291 41.67C103.495 41.85 103.597 42.078 103.597 42.354C103.597 42.63 103.495 42.864 103.291 43.056C103.099 43.236 102.859 43.326 102.571 43.326C102.295 43.326 102.061 43.236 101.869 43.056C101.689 42.864 101.599 42.63 101.599 42.354ZM107.965 42.246V44.946H110.575V46.116H107.965V50.922C107.965 51.318 107.971 51.648 107.983 51.912C108.007 52.176 108.049 52.386 108.109 52.542C108.169 52.698 108.253 52.812 108.361 52.884C108.469 52.944 108.607 52.974 108.775 52.974C109.231 52.962 109.759 52.794 110.359 52.47L110.791 53.568C110.395 53.832 110.023 54.006 109.675 54.09C109.339 54.186 109.003 54.234 108.667 54.234C107.875 54.234 107.317 54.012 106.993 53.568C106.681 53.112 106.525 52.362 106.525 51.318V46.116H104.869V44.946H106.525V42.426L107.965 42.246ZM117.455 49.842C117.215 49.854 116.987 49.866 116.771 49.878C116.555 49.89 116.339 49.908 116.123 49.932C115.919 49.944 115.733 49.962 115.565 49.986C114.701 50.094 114.089 50.286 113.729 50.562C113.369 50.826 113.189 51.21 113.189 51.714C113.189 52.134 113.315 52.452 113.567 52.668C113.831 52.872 114.173 52.974 114.593 52.974C115.169 52.974 115.679 52.878 116.123 52.686C116.579 52.482 117.023 52.218 117.455 51.894V49.842ZM117.437 53.154C116.873 53.478 116.345 53.742 115.853 53.946C115.373 54.138 114.851 54.234 114.287 54.234C113.483 54.234 112.841 54.042 112.361 53.658C111.893 53.262 111.659 52.614 111.659 51.714C111.659 51.246 111.779 50.838 112.019 50.49C112.259 50.142 112.571 49.854 112.955 49.626C113.351 49.386 113.795 49.2 114.287 49.068C114.779 48.936 115.283 48.852 115.799 48.816C116.015 48.792 116.297 48.774 116.645 48.762C116.993 48.738 117.263 48.72 117.455 48.708C117.455 48.288 117.443 47.916 117.419 47.592C117.395 47.256 117.323 46.974 117.203 46.746C117.083 46.506 116.903 46.326 116.663 46.206C116.435 46.086 116.105 46.026 115.673 46.026C115.325 46.026 114.989 46.05 114.665 46.098C114.341 46.134 114.053 46.176 113.801 46.224C113.501 46.284 113.225 46.35 112.973 46.422L112.685 45.18C112.985 45.108 113.309 45.042 113.657 44.982C113.957 44.922 114.305 44.874 114.701 44.838C115.097 44.79 115.523 44.766 115.979 44.766C116.591 44.766 117.083 44.856 117.455 45.036C117.839 45.216 118.133 45.462 118.337 45.774C118.553 46.074 118.697 46.422 118.769 46.818C118.853 47.202 118.895 47.61 118.895 48.042V52.362C118.895 52.53 118.895 52.71 118.895 52.902C118.907 53.082 118.919 53.262 118.931 53.442C118.955 53.622 118.979 53.808 119.003 54L117.617 54.144L117.437 53.154ZM126.473 49.842C126.233 49.854 126.005 49.866 125.789 49.878C125.573 49.89 125.357 49.908 125.141 49.932C124.937 49.944 124.751 49.962 124.583 49.986C123.719 50.094 123.107 50.286 122.747 50.562C122.387 50.826 122.207 51.21 122.207 51.714C122.207 52.134 122.333 52.452 122.585 52.668C122.849 52.872 123.191 52.974 123.611 52.974C124.187 52.974 124.697 52.878 125.141 52.686C125.597 52.482 126.041 52.218 126.473 51.894V49.842ZM126.455 53.154C125.891 53.478 125.363 53.742 124.871 53.946C124.391 54.138 123.869 54.234 123.305 54.234C122.501 54.234 121.859 54.042 121.379 53.658C120.911 53.262 120.677 52.614 120.677 51.714C120.677 51.246 120.797 50.838 121.037 50.49C121.277 50.142 121.589 49.854 121.973 49.626C122.369 49.386 122.813 49.2 123.305 49.068C123.797 48.936 124.301 48.852 124.817 48.816C125.033 48.792 125.315 48.774 125.663 48.762C126.011 48.738 126.281 48.72 126.473 48.708C126.473 48.288 126.461 47.916 126.437 47.592C126.413 47.256 126.341 46.974 126.221 46.746C126.101 46.506 125.921 46.326 125.681 46.206C125.453 46.086 125.123 46.026 124.691 46.026C124.343 46.026 124.007 46.05 123.683 46.098C123.359 46.134 123.071 46.176 122.819 46.224C122.519 46.284 122.243 46.35 121.991 46.422L121.703 45.18C122.003 45.108 122.327 45.042 122.675 44.982C122.975 44.922 123.323 44.874 123.719 44.838C124.115 44.79 124.541 44.766 124.997 44.766C125.609 44.766 126.101 44.856 126.473 45.036C126.857 45.216 127.151 45.462 127.355 45.774C127.571 46.074 127.715 46.422 127.787 46.818C127.871 47.202 127.913 47.61 127.913 48.042V52.362C127.913 52.53 127.913 52.71 127.913 52.902C127.925 53.082 127.937 53.262 127.949 53.442C127.973 53.622 127.997 53.808 128.021 54L126.635 54.144L126.455 53.154ZM136.102 46.296C135.67 46.176 135.334 46.104 135.094 46.08C134.854 46.044 134.608 46.026 134.356 46.026C133.852 46.026 133.42 46.116 133.06 46.296C132.7 46.476 132.4 46.728 132.16 47.052C131.932 47.364 131.764 47.73 131.656 48.15C131.548 48.558 131.494 48.996 131.494 49.464C131.494 49.884 131.536 50.304 131.62 50.724C131.716 51.144 131.86 51.522 132.052 51.858C132.244 52.194 132.478 52.464 132.754 52.668C133.03 52.872 133.36 52.974 133.744 52.974C134.008 52.974 134.278 52.926 134.554 52.83C134.842 52.734 135.106 52.626 135.346 52.506C135.586 52.374 135.838 52.212 136.102 52.02V46.296ZM136.12 53.28C135.844 53.472 135.574 53.634 135.31 53.766C135.058 53.886 134.776 53.994 134.464 54.09C134.164 54.186 133.87 54.234 133.582 54.234C132.454 54.234 131.566 53.838 130.918 53.046C130.282 52.242 129.964 51.072 129.964 49.536C129.964 48.624 130.108 47.862 130.396 47.25C130.696 46.638 131.068 46.152 131.512 45.792C131.956 45.42 132.43 45.156 132.934 45C133.45 44.844 133.924 44.766 134.356 44.766C134.572 44.766 134.8 44.784 135.04 44.82C135.28 44.844 135.634 44.916 136.102 45.036V40.518L137.542 40.356V52.362C137.542 52.53 137.542 52.71 137.542 52.902C137.554 53.082 137.566 53.262 137.578 53.442C137.602 53.622 137.626 53.808 137.65 54L136.264 54.144L136.12 53.28ZM140.153 44.928L141.593 44.766V54H140.153V44.928ZM139.919 42.354C139.919 42.078 140.009 41.85 140.189 41.67C140.381 41.478 140.615 41.382 140.891 41.382C141.179 41.382 141.419 41.478 141.611 41.67C141.815 41.85 141.917 42.078 141.917 42.354C141.917 42.63 141.815 42.864 141.611 43.056C141.419 43.236 141.179 43.326 140.891 43.326C140.615 43.326 140.381 43.236 140.189 43.056C140.009 42.864 139.919 42.63 139.919 42.354ZM152.153 46.116C152.057 46.092 151.949 46.074 151.829 46.062C151.709 46.038 151.577 46.02 151.433 46.008C151.301 45.996 151.163 45.99 151.019 45.99C150.719 45.99 150.425 46.056 150.137 46.188C149.849 46.32 149.585 46.524 149.345 46.8C149.117 47.064 148.931 47.406 148.787 47.826C148.643 48.246 148.571 48.738 148.571 49.302C148.571 49.434 148.577 49.572 148.589 49.716C148.613 49.86 148.643 49.998 148.679 50.13C148.715 50.25 148.763 50.352 148.823 50.436C148.883 50.508 148.955 50.544 149.039 50.544C149.099 50.544 149.207 50.49 149.363 50.382C149.531 50.262 149.717 50.112 149.921 49.932C150.125 49.74 150.341 49.524 150.569 49.284C150.797 49.032 151.007 48.78 151.199 48.528C151.391 48.276 151.559 48.024 151.703 47.772C151.847 47.52 151.937 47.292 151.973 47.088L152.153 46.116ZM153.089 48.654C153.053 48.858 153.041 49.068 153.053 49.284C153.065 49.5 153.089 49.698 153.125 49.878C153.161 50.058 153.197 50.208 153.233 50.328C153.281 50.436 153.323 50.49 153.359 50.49C153.707 50.49 154.049 50.43 154.385 50.31C154.721 50.178 155.021 49.98 155.285 49.716C155.561 49.452 155.777 49.122 155.933 48.726C156.101 48.318 156.185 47.838 156.185 47.286C156.185 46.482 156.071 45.798 155.843 45.234C155.615 44.67 155.279 44.208 154.835 43.848C154.403 43.488 153.869 43.23 153.233 43.074C152.609 42.906 151.895 42.822 151.091 42.822C150.335 42.822 149.597 42.96 148.877 43.236C148.157 43.5 147.521 43.89 146.969 44.406C146.417 44.922 145.973 45.564 145.637 46.332C145.301 47.088 145.133 47.958 145.133 48.942C145.133 50.73 145.565 52.02 146.429 52.812C147.305 53.604 148.619 54 150.371 54C150.791 54 151.163 53.976 151.487 53.928C151.823 53.868 152.111 53.808 152.351 53.748C152.627 53.676 152.867 53.592 153.071 53.496L153.431 54.684C153.131 54.792 152.801 54.882 152.441 54.954C152.129 55.026 151.757 55.086 151.325 55.134C150.905 55.194 150.443 55.224 149.939 55.224C148.991 55.224 148.139 55.098 147.383 54.846C146.639 54.594 146.003 54.216 145.475 53.712C144.959 53.196 144.563 52.542 144.287 51.75C144.011 50.958 143.873 50.022 143.873 48.942C143.873 47.778 144.071 46.74 144.467 45.828C144.875 44.904 145.409 44.13 146.069 43.506C146.741 42.87 147.509 42.39 148.373 42.066C149.249 41.73 150.155 41.562 151.091 41.562C152.027 41.562 152.885 41.664 153.665 41.868C154.445 42.072 155.111 42.402 155.663 42.858C156.227 43.302 156.665 43.89 156.977 44.622C157.289 45.354 157.445 46.242 157.445 47.286C157.445 47.862 157.355 48.426 157.175 48.978C157.007 49.518 156.731 50.004 156.347 50.436C155.963 50.856 155.465 51.198 154.853 51.462C154.253 51.714 153.521 51.84 152.657 51.84C152.609 51.84 152.543 51.792 152.459 51.696C152.375 51.588 152.297 51.426 152.225 51.21C152.153 50.994 152.087 50.724 152.027 50.4C151.979 50.064 151.961 49.668 151.973 49.212H151.937C151.313 50.016 150.737 50.64 150.209 51.084C149.681 51.528 149.183 51.75 148.715 51.75C148.175 51.75 147.779 51.552 147.527 51.156C147.275 50.76 147.149 50.238 147.149 49.59C147.149 48.882 147.251 48.234 147.455 47.646C147.671 47.046 147.965 46.536 148.337 46.116C148.721 45.684 149.171 45.354 149.687 45.126C150.215 44.886 150.791 44.766 151.415 44.766C151.583 44.766 151.787 44.784 152.027 44.82C152.279 44.844 152.813 44.922 153.629 45.054L153.089 48.654ZM166.617 54.864C166.617 55.308 166.569 55.74 166.473 56.16C166.377 56.58 166.191 56.952 165.915 57.276C165.651 57.612 165.273 57.876 164.781 58.068C164.301 58.272 163.665 58.374 162.873 58.374C162.369 58.362 161.931 58.332 161.559 58.284C161.187 58.236 160.833 58.164 160.497 58.068C160.161 57.984 159.855 57.882 159.579 57.762L159.957 56.502C160.425 56.706 160.899 56.862 161.379 56.97C161.871 57.078 162.309 57.132 162.693 57.132C163.113 57.132 163.479 57.09 163.791 57.006C164.103 56.922 164.361 56.778 164.565 56.574C164.781 56.382 164.937 56.124 165.033 55.8C165.141 55.476 165.195 55.074 165.195 54.594V53.28C164.943 53.448 164.679 53.604 164.403 53.748C164.139 53.88 163.851 53.994 163.539 54.09C163.239 54.186 162.945 54.234 162.657 54.234C161.541 54.234 160.659 53.844 160.011 53.064C159.363 52.272 159.039 51.096 159.039 49.536C159.039 48.636 159.177 47.886 159.453 47.286C159.741 46.674 160.101 46.182 160.533 45.81C160.965 45.438 161.439 45.174 161.955 45.018C162.471 44.85 162.963 44.766 163.431 44.766C164.043 44.766 164.601 44.82 165.105 44.928C165.621 45.024 166.125 45.102 166.617 45.162V54.864ZM162.819 52.974C163.083 52.974 163.353 52.926 163.629 52.83C163.905 52.734 164.169 52.62 164.421 52.488C164.685 52.356 164.943 52.2 165.195 52.02V46.278C165.051 46.242 164.883 46.2 164.691 46.152C164.523 46.128 164.331 46.104 164.115 46.08C163.899 46.044 163.671 46.026 163.431 46.026C162.927 46.026 162.495 46.116 162.135 46.296C161.775 46.476 161.475 46.722 161.235 47.034C161.007 47.346 160.839 47.712 160.731 48.132C160.623 48.552 160.569 48.996 160.569 49.464C160.569 49.884 160.611 50.304 160.695 50.724C160.791 51.144 160.935 51.522 161.127 51.858C161.319 52.194 161.553 52.464 161.829 52.668C162.105 52.872 162.435 52.974 162.819 52.974ZM169.228 46.584C169.228 46.176 169.192 45.684 169.12 45.108L170.47 44.928L170.668 46.062C170.992 45.822 171.31 45.612 171.622 45.432C171.934 45.252 172.27 45.096 172.63 44.964C172.99 44.832 173.356 44.766 173.728 44.766C174.328 44.766 174.802 44.874 175.15 45.09C175.498 45.294 175.756 45.648 175.924 46.152C176.416 45.804 176.926 45.486 177.454 45.198C177.994 44.91 178.552 44.766 179.128 44.766C179.572 44.766 179.95 44.826 180.262 44.946C180.574 45.054 180.826 45.24 181.018 45.504C181.21 45.768 181.348 46.116 181.432 46.548C181.516 46.98 181.558 47.52 181.558 48.168V54H180.118V48.33C180.118 47.97 180.112 47.652 180.1 47.376C180.088 47.088 180.046 46.848 179.974 46.656C179.902 46.452 179.782 46.296 179.614 46.188C179.458 46.08 179.23 46.026 178.93 46.026C178.654 46.026 178.39 46.068 178.138 46.152C177.898 46.224 177.646 46.332 177.382 46.476C177.118 46.62 176.71 46.914 176.158 47.358V54H174.718V48.33C174.718 47.97 174.712 47.652 174.7 47.376C174.688 47.088 174.646 46.848 174.574 46.656C174.502 46.452 174.382 46.296 174.214 46.188C174.058 46.08 173.83 46.026 173.53 46.026C173.218 46.026 172.894 46.092 172.558 46.224C172.222 46.356 171.904 46.512 171.604 46.692C171.304 46.872 170.992 47.082 170.668 47.322V54H169.228V46.584ZM189.139 49.842C188.899 49.854 188.671 49.866 188.455 49.878C188.239 49.89 188.023 49.908 187.807 49.932C187.603 49.944 187.417 49.962 187.249 49.986C186.385 50.094 185.773 50.286 185.413 50.562C185.053 50.826 184.873 51.21 184.873 51.714C184.873 52.134 184.999 52.452 185.251 52.668C185.515 52.872 185.857 52.974 186.277 52.974C186.853 52.974 187.363 52.878 187.807 52.686C188.263 52.482 188.707 52.218 189.139 51.894V49.842ZM189.121 53.154C188.557 53.478 188.029 53.742 187.537 53.946C187.057 54.138 186.535 54.234 185.971 54.234C185.167 54.234 184.525 54.042 184.045 53.658C183.577 53.262 183.343 52.614 183.343 51.714C183.343 51.246 183.463 50.838 183.703 50.49C183.943 50.142 184.255 49.854 184.639 49.626C185.035 49.386 185.479 49.2 185.971 49.068C186.463 48.936 186.967 48.852 187.483 48.816C187.699 48.792 187.981 48.774 188.329 48.762C188.677 48.738 188.947 48.72 189.139 48.708C189.139 48.288 189.127 47.916 189.103 47.592C189.079 47.256 189.007 46.974 188.887 46.746C188.767 46.506 188.587 46.326 188.347 46.206C188.119 46.086 187.789 46.026 187.357 46.026C187.009 46.026 186.673 46.05 186.349 46.098C186.025 46.134 185.737 46.176 185.485 46.224C185.185 46.284 184.909 46.35 184.657 46.422L184.369 45.18C184.669 45.108 184.993 45.042 185.341 44.982C185.641 44.922 185.989 44.874 186.385 44.838C186.781 44.79 187.207 44.766 187.663 44.766C188.275 44.766 188.767 44.856 189.139 45.036C189.523 45.216 189.817 45.462 190.021 45.774C190.237 46.074 190.381 46.422 190.453 46.818C190.537 47.202 190.579 47.61 190.579 48.042V52.362C190.579 52.53 190.579 52.71 190.579 52.902C190.591 53.082 190.603 53.262 190.615 53.442C190.639 53.622 190.663 53.808 190.687 54L189.301 54.144L189.121 53.154ZM193.116 44.928L194.556 44.766V54H193.116V44.928ZM192.882 42.354C192.882 42.078 192.972 41.85 193.152 41.67C193.344 41.478 193.578 41.382 193.854 41.382C194.142 41.382 194.382 41.478 194.574 41.67C194.778 41.85 194.88 42.078 194.88 42.354C194.88 42.63 194.778 42.864 194.574 43.056C194.382 43.236 194.142 43.326 193.854 43.326C193.578 43.326 193.344 43.236 193.152 43.056C192.972 42.864 192.882 42.63 192.882 42.354ZM197.142 40.518L198.582 40.356V54H197.142V40.518ZM200.789 52.938C200.789 52.65 200.891 52.404 201.095 52.2C201.299 51.984 201.551 51.876 201.851 51.876C202.163 51.876 202.427 51.984 202.643 52.2C202.859 52.404 202.967 52.65 202.967 52.938C202.967 53.238 202.859 53.49 202.643 53.694C202.427 53.898 202.163 54 201.851 54C201.551 54 201.299 53.898 201.095 53.694C200.891 53.49 200.789 53.238 200.789 52.938ZM210.773 46.26C210.569 46.212 210.287 46.164 209.927 46.116C209.567 46.056 209.201 46.026 208.829 46.026C208.289 46.026 207.845 46.134 207.497 46.35C207.161 46.566 206.897 46.848 206.705 47.196C206.513 47.532 206.381 47.91 206.309 48.33C206.237 48.738 206.201 49.14 206.201 49.536C206.201 50.148 206.279 50.676 206.435 51.12C206.591 51.552 206.795 51.906 207.047 52.182C207.311 52.458 207.611 52.662 207.947 52.794C208.283 52.914 208.637 52.974 209.009 52.974C209.261 52.974 209.501 52.962 209.729 52.938C209.969 52.902 210.185 52.866 210.377 52.83C210.581 52.782 210.773 52.728 210.953 52.668L211.241 53.874C210.989 53.946 210.755 54.006 210.539 54.054C210.323 54.102 210.065 54.144 209.765 54.18C209.477 54.216 209.165 54.234 208.829 54.234C208.169 54.234 207.581 54.15 207.065 53.982C206.549 53.814 206.111 53.544 205.751 53.172C205.403 52.8 205.133 52.314 204.941 51.714C204.761 51.114 204.671 50.382 204.671 49.518C204.671 48.678 204.785 47.958 205.013 47.358C205.253 46.746 205.565 46.254 205.949 45.882C206.333 45.498 206.771 45.216 207.263 45.036C207.767 44.856 208.289 44.766 208.829 44.766C209.117 44.766 209.393 44.784 209.657 44.82C209.933 44.844 210.173 44.874 210.377 44.91C210.617 44.958 210.845 45.006 211.061 45.054L210.773 46.26ZM213.83 49.518C213.83 50.682 214.088 51.552 214.604 52.128C215.132 52.692 215.84 52.974 216.728 52.974C217.604 52.974 218.288 52.692 218.78 52.128C219.272 51.564 219.518 50.718 219.518 49.59C219.518 48.39 219.254 47.496 218.726 46.908C218.21 46.32 217.502 46.026 216.602 46.026C215.702 46.026 215.012 46.32 214.532 46.908C214.064 47.484 213.83 48.354 213.83 49.518ZM212.3 49.5C212.3 48.588 212.444 47.832 212.732 47.232C213.02 46.62 213.386 46.134 213.83 45.774C214.274 45.402 214.748 45.144 215.252 45C215.768 44.844 216.254 44.766 216.71 44.766C217.142 44.766 217.61 44.838 218.114 44.982C218.63 45.114 219.104 45.36 219.536 45.72C219.968 46.068 220.328 46.542 220.616 47.142C220.904 47.73 221.048 48.48 221.048 49.392C221.048 50.34 220.898 51.126 220.598 51.75C220.31 52.374 219.944 52.872 219.5 53.244C219.056 53.604 218.576 53.856 218.06 54C217.544 54.156 217.064 54.234 216.62 54.234C216.164 54.234 215.684 54.162 215.18 54.018C214.676 53.874 214.208 53.628 213.776 53.28C213.356 52.92 213.002 52.434 212.714 51.822C212.438 51.21 212.3 50.436 212.3 49.5ZM223.158 46.584C223.158 46.176 223.122 45.684 223.05 45.108L224.4 44.928L224.598 46.062C224.922 45.822 225.24 45.612 225.552 45.432C225.864 45.252 226.2 45.096 226.56 44.964C226.92 44.832 227.286 44.766 227.658 44.766C228.258 44.766 228.732 44.874 229.08 45.09C229.428 45.294 229.686 45.648 229.854 46.152C230.346 45.804 230.856 45.486 231.384 45.198C231.924 44.91 232.482 44.766 233.058 44.766C233.502 44.766 233.88 44.826 234.192 44.946C234.504 45.054 234.756 45.24 234.948 45.504C235.14 45.768 235.278 46.116 235.362 46.548C235.446 46.98 235.488 47.52 235.488 48.168V54H234.048V48.33C234.048 47.97 234.042 47.652 234.03 47.376C234.018 47.088 233.976 46.848 233.904 46.656C233.832 46.452 233.712 46.296 233.544 46.188C233.388 46.08 233.16 46.026 232.86 46.026C232.584 46.026 232.32 46.068 232.068 46.152C231.828 46.224 231.576 46.332 231.312 46.476C231.048 46.62 230.64 46.914 230.088 47.358V54H228.648V48.33C228.648 47.97 228.642 47.652 228.63 47.376C228.618 47.088 228.576 46.848 228.504 46.656C228.432 46.452 228.312 46.296 228.144 46.188C227.988 46.08 227.76 46.026 227.46 46.026C227.148 46.026 226.824 46.092 226.488 46.224C226.152 46.356 225.834 46.512 225.534 46.692C225.234 46.872 224.922 47.082 224.598 47.322V54H223.158V46.584Z" fill="url(#paint0_radial_61_11863)"/>
<rect x="61" y="88" width="234" height="50" rx="12" fill="#F2F2F2"/>
<path d="M78.926 106.724H80.852L83.624 114.032C83.78 114.452 83.924 114.842 84.056 115.202C84.188 115.55 84.302 115.862 84.398 116.138C84.518 116.45 84.62 116.738 84.704 117.002H84.74C84.812 116.738 84.902 116.45 85.01 116.138C85.106 115.862 85.214 115.55 85.334 115.202C85.454 114.842 85.598 114.452 85.766 114.032L88.592 106.724H90.518L91.148 119H89.618L89.312 112.25C89.288 111.662 89.27 111.164 89.258 110.756C89.246 110.348 89.24 110.012 89.24 109.748V108.992H89.204C89.132 109.172 89.042 109.418 88.934 109.73C88.838 109.994 88.712 110.336 88.556 110.756C88.412 111.164 88.232 111.662 88.016 112.25L85.478 119H83.948L81.392 112.25C81.164 111.674 80.978 111.182 80.834 110.774C80.69 110.354 80.57 110.012 80.474 109.748C80.366 109.436 80.282 109.184 80.222 108.992H80.186C80.198 109.184 80.21 109.436 80.222 109.748C80.234 110.252 80.216 111.086 80.168 112.25L79.808 119H78.278L78.926 106.724ZM94.6501 114.518C94.6501 115.682 94.9081 116.552 95.4241 117.128C95.9521 117.692 96.6601 117.974 97.5481 117.974C98.4241 117.974 99.1081 117.692 99.6001 117.128C100.092 116.564 100.338 115.718 100.338 114.59C100.338 113.39 100.074 112.496 99.5461 111.908C99.0301 111.32 98.3221 111.026 97.4221 111.026C96.5221 111.026 95.8321 111.32 95.3521 111.908C94.8841 112.484 94.6501 113.354 94.6501 114.518ZM93.1201 114.5C93.1201 113.588 93.2641 112.832 93.5521 112.232C93.8401 111.62 94.2061 111.134 94.6501 110.774C95.0941 110.402 95.5681 110.144 96.0721 110C96.5881 109.844 97.0741 109.766 97.5301 109.766C97.9621 109.766 98.4301 109.838 98.9341 109.982C99.4501 110.114 99.9241 110.36 100.356 110.72C100.788 111.068 101.148 111.542 101.436 112.142C101.724 112.73 101.868 113.48 101.868 114.392C101.868 115.34 101.718 116.126 101.418 116.75C101.13 117.374 100.764 117.872 100.32 118.244C99.8761 118.604 99.3961 118.856 98.8801 119C98.3641 119.156 97.8841 119.234 97.4401 119.234C96.9841 119.234 96.5041 119.162 96.0001 119.018C95.4961 118.874 95.0281 118.628 94.5961 118.28C94.1761 117.92 93.8221 117.434 93.5341 116.822C93.2581 116.21 93.1201 115.436 93.1201 114.5ZM105.996 107.246V109.946H108.606V111.116H105.996V115.922C105.996 116.318 106.002 116.648 106.014 116.912C106.038 117.176 106.08 117.386 106.14 117.542C106.2 117.698 106.284 117.812 106.392 117.884C106.5 117.944 106.638 117.974 106.806 117.974C107.262 117.962 107.79 117.794 108.39 117.47L108.822 118.568C108.426 118.832 108.054 119.006 107.706 119.09C107.37 119.186 107.034 119.234 106.698 119.234C105.906 119.234 105.348 119.012 105.024 118.568C104.712 118.112 104.556 117.362 104.556 116.318V111.116H102.9V109.946H104.556V107.426L105.996 107.246ZM120.212 111.296C119.78 111.176 119.444 111.104 119.204 111.08C118.964 111.044 118.718 111.026 118.466 111.026C117.962 111.026 117.53 111.116 117.17 111.296C116.81 111.476 116.51 111.728 116.27 112.052C116.042 112.364 115.874 112.73 115.766 113.15C115.658 113.558 115.604 113.996 115.604 114.464C115.604 114.884 115.646 115.304 115.73 115.724C115.826 116.144 115.97 116.522 116.162 116.858C116.354 117.194 116.588 117.464 116.864 117.668C117.14 117.872 117.47 117.974 117.854 117.974C118.118 117.974 118.388 117.926 118.664 117.83C118.952 117.734 119.216 117.626 119.456 117.506C119.696 117.374 119.948 117.212 120.212 117.02V111.296ZM120.23 118.28C119.954 118.472 119.684 118.634 119.42 118.766C119.168 118.886 118.886 118.994 118.574 119.09C118.274 119.186 117.98 119.234 117.692 119.234C116.564 119.234 115.676 118.838 115.028 118.046C114.392 117.242 114.074 116.072 114.074 114.536C114.074 113.624 114.218 112.862 114.506 112.25C114.806 111.638 115.178 111.152 115.622 110.792C116.066 110.42 116.54 110.156 117.044 110C117.56 109.844 118.034 109.766 118.466 109.766C118.682 109.766 118.91 109.784 119.15 109.82C119.39 109.844 119.744 109.916 120.212 110.036V105.518L121.652 105.356V117.362C121.652 117.53 121.652 117.71 121.652 117.902C121.664 118.082 121.676 118.262 121.688 118.442C121.712 118.622 121.736 118.808 121.76 119L120.374 119.144L120.23 118.28ZM130.959 118.784C130.683 118.868 130.395 118.94 130.095 119C129.807 119.06 129.483 119.114 129.123 119.162C128.775 119.21 128.409 119.234 128.025 119.234C127.425 119.234 126.867 119.15 126.351 118.982C125.835 118.814 125.385 118.544 125.001 118.172C124.617 117.8 124.311 117.32 124.083 116.732C123.867 116.132 123.759 115.4 123.759 114.536C123.759 113.756 123.867 113.072 124.083 112.484C124.299 111.884 124.593 111.386 124.965 110.99C125.349 110.582 125.793 110.276 126.297 110.072C126.813 109.868 127.371 109.766 127.971 109.766C128.559 109.766 129.069 109.88 129.501 110.108C129.933 110.336 130.287 110.648 130.563 111.044C130.851 111.428 131.061 111.884 131.193 112.412C131.337 112.928 131.409 113.474 131.409 114.05L131.139 114.842H125.325C125.325 115.214 125.373 115.586 125.469 115.958C125.565 116.33 125.727 116.666 125.955 116.966C126.195 117.266 126.501 117.512 126.873 117.704C127.257 117.884 127.731 117.974 128.295 117.974C128.655 117.974 128.985 117.956 129.285 117.92C129.585 117.872 129.843 117.824 130.059 117.776C130.287 117.716 130.497 117.65 130.689 117.578L130.959 118.784ZM129.915 113.69C129.915 113.606 129.897 113.42 129.861 113.132C129.825 112.844 129.741 112.544 129.609 112.232C129.477 111.92 129.273 111.644 128.997 111.404C128.721 111.152 128.355 111.026 127.899 111.026C127.395 111.026 126.981 111.134 126.657 111.35C126.333 111.554 126.075 111.8 125.883 112.088C125.691 112.376 125.559 112.67 125.487 112.97C125.415 113.27 125.379 113.51 125.379 113.69H129.915ZM137.5 112.034C137.5 111.602 137.47 110.96 137.41 110.108L138.742 109.928L138.904 110.9C139.144 110.696 139.39 110.516 139.642 110.36C139.906 110.192 140.188 110.054 140.488 109.946C140.8 109.826 141.13 109.766 141.478 109.766C141.97 109.766 142.432 109.85 142.864 110.018C143.308 110.186 143.692 110.456 144.016 110.828C144.352 111.2 144.616 111.686 144.808 112.286C145 112.874 145.096 113.6 145.096 114.464C145.096 115.34 144.964 116.084 144.7 116.696C144.448 117.296 144.112 117.788 143.692 118.172C143.284 118.544 142.816 118.814 142.288 118.982C141.772 119.15 141.244 119.234 140.704 119.234C140.128 119.222 139.54 119.15 138.94 119.018V122.924L137.5 123.104V112.034ZM140.704 117.974C141.208 117.974 141.64 117.884 142 117.704C142.36 117.524 142.654 117.278 142.882 116.966C143.122 116.642 143.296 116.276 143.404 115.868C143.512 115.448 143.566 115.004 143.566 114.536C143.566 114.116 143.524 113.696 143.44 113.276C143.368 112.856 143.242 112.484 143.062 112.16C142.894 111.824 142.666 111.554 142.378 111.35C142.09 111.134 141.736 111.026 141.316 111.026C141.004 111.026 140.71 111.086 140.434 111.206C140.158 111.314 139.894 111.452 139.642 111.62C139.402 111.776 139.168 111.956 138.94 112.16V117.686C139.072 117.734 139.216 117.782 139.372 117.83C139.54 117.866 139.732 117.902 139.948 117.938C140.176 117.962 140.428 117.974 140.704 117.974ZM152.242 114.842C152.002 114.854 151.774 114.866 151.558 114.878C151.342 114.89 151.126 114.908 150.91 114.932C150.706 114.944 150.52 114.962 150.352 114.986C149.488 115.094 148.876 115.286 148.516 115.562C148.156 115.826 147.976 116.21 147.976 116.714C147.976 117.134 148.102 117.452 148.354 117.668C148.618 117.872 148.96 117.974 149.38 117.974C149.956 117.974 150.466 117.878 150.91 117.686C151.366 117.482 151.81 117.218 152.242 116.894V114.842ZM152.224 118.154C151.66 118.478 151.132 118.742 150.64 118.946C150.16 119.138 149.638 119.234 149.074 119.234C148.27 119.234 147.628 119.042 147.148 118.658C146.68 118.262 146.446 117.614 146.446 116.714C146.446 116.246 146.566 115.838 146.806 115.49C147.046 115.142 147.358 114.854 147.742 114.626C148.138 114.386 148.582 114.2 149.074 114.068C149.566 113.936 150.07 113.852 150.586 113.816C150.802 113.792 151.084 113.774 151.432 113.762C151.78 113.738 152.05 113.72 152.242 113.708C152.242 113.288 152.23 112.916 152.206 112.592C152.182 112.256 152.11 111.974 151.99 111.746C151.87 111.506 151.69 111.326 151.45 111.206C151.222 111.086 150.892 111.026 150.46 111.026C150.112 111.026 149.776 111.05 149.452 111.098C149.128 111.134 148.84 111.176 148.588 111.224C148.288 111.284 148.012 111.35 147.76 111.422L147.472 110.18C147.772 110.108 148.096 110.042 148.444 109.982C148.744 109.922 149.092 109.874 149.488 109.838C149.884 109.79 150.31 109.766 150.766 109.766C151.378 109.766 151.87 109.856 152.242 110.036C152.626 110.216 152.92 110.462 153.124 110.774C153.34 111.074 153.484 111.422 153.556 111.818C153.64 112.202 153.682 112.61 153.682 113.042V117.362C153.682 117.53 153.682 117.71 153.682 117.902C153.694 118.082 153.706 118.262 153.718 118.442C153.742 118.622 153.766 118.808 153.79 119L152.404 119.144L152.224 118.154ZM161.116 111.422C160.612 111.266 160.162 111.164 159.766 111.116C159.382 111.056 159.028 111.026 158.704 111.026C158.284 111.026 157.93 111.128 157.642 111.332C157.366 111.536 157.228 111.8 157.228 112.124C157.24 112.412 157.366 112.658 157.606 112.862C157.846 113.066 158.122 113.252 158.434 113.42C158.758 113.576 159.112 113.75 159.496 113.942C159.892 114.134 160.258 114.35 160.594 114.59C160.942 114.83 161.224 115.118 161.44 115.454C161.656 115.79 161.77 116.192 161.782 116.66C161.77 117.164 161.656 117.584 161.44 117.92C161.236 118.244 160.966 118.508 160.63 118.712C160.306 118.904 159.952 119.036 159.568 119.108C159.184 119.192 158.824 119.234 158.488 119.234C158.056 119.234 157.606 119.21 157.138 119.162C156.682 119.114 156.19 119.012 155.662 118.856L155.932 117.56C156.472 117.704 156.964 117.812 157.408 117.884C157.852 117.944 158.218 117.974 158.506 117.974C158.722 117.974 158.932 117.95 159.136 117.902C159.352 117.854 159.544 117.788 159.712 117.704C159.88 117.608 160.012 117.488 160.108 117.344C160.216 117.2 160.27 117.038 160.27 116.858C160.258 116.522 160.144 116.24 159.928 116.012C159.712 115.772 159.43 115.562 159.082 115.382C158.746 115.19 158.38 115.004 157.984 114.824C157.6 114.632 157.234 114.416 156.886 114.176C156.55 113.924 156.268 113.63 156.04 113.294C155.812 112.946 155.698 112.52 155.698 112.016C155.698 111.656 155.788 111.338 155.968 111.062C156.16 110.774 156.4 110.54 156.688 110.36C156.988 110.168 157.312 110.024 157.66 109.928C158.02 109.82 158.368 109.766 158.704 109.766C159.052 109.766 159.442 109.796 159.874 109.856C160.306 109.904 160.804 110 161.368 110.144L161.116 111.422ZM168.622 111.422C168.118 111.266 167.668 111.164 167.272 111.116C166.888 111.056 166.534 111.026 166.21 111.026C165.79 111.026 165.436 111.128 165.148 111.332C164.872 111.536 164.734 111.8 164.734 112.124C164.746 112.412 164.872 112.658 165.112 112.862C165.352 113.066 165.628 113.252 165.94 113.42C166.264 113.576 166.618 113.75 167.002 113.942C167.398 114.134 167.764 114.35 168.1 114.59C168.448 114.83 168.73 115.118 168.946 115.454C169.162 115.79 169.276 116.192 169.288 116.66C169.276 117.164 169.162 117.584 168.946 117.92C168.742 118.244 168.472 118.508 168.136 118.712C167.812 118.904 167.458 119.036 167.074 119.108C166.69 119.192 166.33 119.234 165.994 119.234C165.562 119.234 165.112 119.21 164.644 119.162C164.188 119.114 163.696 119.012 163.168 118.856L163.438 117.56C163.978 117.704 164.47 117.812 164.914 117.884C165.358 117.944 165.724 117.974 166.012 117.974C166.228 117.974 166.438 117.95 166.642 117.902C166.858 117.854 167.05 117.788 167.218 117.704C167.386 117.608 167.518 117.488 167.614 117.344C167.722 117.2 167.776 117.038 167.776 116.858C167.764 116.522 167.65 116.24 167.434 116.012C167.218 115.772 166.936 115.562 166.588 115.382C166.252 115.19 165.886 115.004 165.49 114.824C165.106 114.632 164.74 114.416 164.392 114.176C164.056 113.924 163.774 113.63 163.546 113.294C163.318 112.946 163.204 112.52 163.204 112.016C163.204 111.656 163.294 111.338 163.474 111.062C163.666 110.774 163.906 110.54 164.194 110.36C164.494 110.168 164.818 110.024 165.166 109.928C165.526 109.82 165.874 109.766 166.21 109.766C166.558 109.766 166.948 109.796 167.38 109.856C167.812 109.904 168.31 110 168.874 110.144L168.622 111.422ZM177.928 118.784C177.652 118.868 177.364 118.94 177.064 119C176.776 119.06 176.452 119.114 176.092 119.162C175.744 119.21 175.378 119.234 174.994 119.234C174.394 119.234 173.836 119.15 173.32 118.982C172.804 118.814 172.354 118.544 171.97 118.172C171.586 117.8 171.28 117.32 171.052 116.732C170.836 116.132 170.728 115.4 170.728 114.536C170.728 113.756 170.836 113.072 171.052 112.484C171.268 111.884 171.562 111.386 171.934 110.99C172.318 110.582 172.762 110.276 173.266 110.072C173.782 109.868 174.34 109.766 174.94 109.766C175.528 109.766 176.038 109.88 176.47 110.108C176.902 110.336 177.256 110.648 177.532 111.044C177.82 111.428 178.03 111.884 178.162 112.412C178.306 112.928 178.378 113.474 178.378 114.05L178.108 114.842H172.294C172.294 115.214 172.342 115.586 172.438 115.958C172.534 116.33 172.696 116.666 172.924 116.966C173.164 117.266 173.47 117.512 173.842 117.704C174.226 117.884 174.7 117.974 175.264 117.974C175.624 117.974 175.954 117.956 176.254 117.92C176.554 117.872 176.812 117.824 177.028 117.776C177.256 117.716 177.466 117.65 177.658 117.578L177.928 118.784ZM176.884 113.69C176.884 113.606 176.866 113.42 176.83 113.132C176.794 112.844 176.71 112.544 176.578 112.232C176.446 111.92 176.242 111.644 175.966 111.404C175.69 111.152 175.324 111.026 174.868 111.026C174.364 111.026 173.95 111.134 173.626 111.35C173.302 111.554 173.044 111.8 172.852 112.088C172.66 112.376 172.528 112.67 172.456 112.97C172.384 113.27 172.348 113.51 172.348 113.69H176.884Z" fill="#828282"/>
<rect x="237" y="144" width="162" height="47" rx="8" fill="#F7A400"/>
<path d="M274.866 163.416C274.578 163.344 274.278 163.278 273.966 163.218C273.69 163.158 273.372 163.11 273.012 163.074C272.664 163.026 272.298 163.002 271.914 163.002C271.026 163.002 270.39 163.14 270.006 163.416C269.622 163.68 269.43 164.094 269.43 164.658C269.442 165.102 269.604 165.48 269.916 165.792C270.228 166.092 270.618 166.374 271.086 166.638C271.554 166.89 272.064 167.142 272.616 167.394C273.18 167.634 273.696 167.916 274.164 168.24C274.632 168.552 275.022 168.924 275.334 169.356C275.658 169.776 275.82 170.292 275.82 170.904C275.82 171.612 275.664 172.182 275.352 172.614C275.052 173.046 274.668 173.382 274.2 173.622C273.732 173.862 273.216 174.024 272.652 174.108C272.1 174.192 271.572 174.234 271.068 174.234C270.588 174.234 270.15 174.204 269.754 174.144C269.358 174.084 269.016 174.018 268.728 173.946C268.392 173.862 268.086 173.766 267.81 173.658L268.17 172.2C268.446 172.32 268.74 172.422 269.052 172.506C269.328 172.578 269.634 172.644 269.97 172.704C270.318 172.764 270.684 172.794 271.068 172.794C271.536 172.794 271.962 172.764 272.346 172.704C272.742 172.644 273.084 172.548 273.372 172.416C273.66 172.284 273.882 172.11 274.038 171.894C274.206 171.678 274.29 171.414 274.29 171.102C274.278 170.634 274.122 170.256 273.822 169.968C273.534 169.668 273.144 169.386 272.652 169.122C272.172 168.846 271.65 168.582 271.086 168.33C270.534 168.078 270.024 167.79 269.556 167.466C269.088 167.142 268.692 166.758 268.368 166.314C268.056 165.87 267.9 165.318 267.9 164.658C267.9 164.274 267.966 163.896 268.098 163.524C268.23 163.152 268.452 162.822 268.764 162.534C269.088 162.246 269.502 162.012 270.006 161.832C270.522 161.652 271.158 161.562 271.914 161.562C272.346 161.562 272.754 161.586 273.138 161.634C273.534 161.67 273.876 161.712 274.164 161.76C274.5 161.82 274.818 161.886 275.118 161.958L274.866 163.416ZM284.467 173.784C284.191 173.868 283.903 173.94 283.603 174C283.315 174.06 282.991 174.114 282.631 174.162C282.283 174.21 281.917 174.234 281.533 174.234C280.933 174.234 280.375 174.15 279.859 173.982C279.343 173.814 278.893 173.544 278.509 173.172C278.125 172.8 277.819 172.32 277.591 171.732C277.375 171.132 277.267 170.4 277.267 169.536C277.267 168.756 277.375 168.072 277.591 167.484C277.807 166.884 278.101 166.386 278.473 165.99C278.857 165.582 279.301 165.276 279.805 165.072C280.321 164.868 280.879 164.766 281.479 164.766C282.067 164.766 282.577 164.88 283.009 165.108C283.441 165.336 283.795 165.648 284.071 166.044C284.359 166.428 284.569 166.884 284.701 167.412C284.845 167.928 284.917 168.474 284.917 169.05L284.647 169.842H278.833C278.833 170.214 278.881 170.586 278.977 170.958C279.073 171.33 279.235 171.666 279.463 171.966C279.703 172.266 280.009 172.512 280.381 172.704C280.765 172.884 281.239 172.974 281.803 172.974C282.163 172.974 282.493 172.956 282.793 172.92C283.093 172.872 283.351 172.824 283.567 172.776C283.795 172.716 284.005 172.65 284.197 172.578L284.467 173.784ZM283.423 168.69C283.423 168.606 283.405 168.42 283.369 168.132C283.333 167.844 283.249 167.544 283.117 167.232C282.985 166.92 282.781 166.644 282.505 166.404C282.229 166.152 281.863 166.026 281.407 166.026C280.903 166.026 280.489 166.134 280.165 166.35C279.841 166.554 279.583 166.8 279.391 167.088C279.199 167.376 279.067 167.67 278.995 167.97C278.923 168.27 278.887 168.51 278.887 168.69H283.423ZM299.629 163.452C299.329 163.356 299.011 163.272 298.675 163.2C298.339 163.116 297.967 163.05 297.559 163.002C297.163 162.942 296.743 162.912 296.299 162.912C295.579 162.912 294.967 163.068 294.463 163.38C293.959 163.692 293.545 164.094 293.221 164.586C292.909 165.066 292.681 165.606 292.537 166.206C292.393 166.806 292.321 167.4 292.321 167.988C292.321 168.732 292.423 169.41 292.627 170.022C292.843 170.622 293.131 171.138 293.491 171.57C293.863 171.99 294.289 172.314 294.769 172.542C295.261 172.77 295.777 172.884 296.317 172.884C296.821 172.884 297.283 172.86 297.703 172.812C298.123 172.752 298.483 172.692 298.783 172.632C299.131 172.56 299.443 172.476 299.719 172.38L300.025 173.658C299.701 173.766 299.341 173.862 298.945 173.946C298.609 174.018 298.219 174.084 297.775 174.144C297.331 174.204 296.845 174.234 296.317 174.234C295.369 174.234 294.535 174.078 293.815 173.766C293.107 173.454 292.513 173.022 292.033 172.47C291.565 171.906 291.211 171.246 290.971 170.49C290.731 169.722 290.611 168.882 290.611 167.97C290.611 166.926 290.755 166.008 291.043 165.216C291.331 164.412 291.727 163.74 292.231 163.2C292.735 162.66 293.335 162.252 294.031 161.976C294.727 161.7 295.489 161.562 296.317 161.562C296.821 161.562 297.289 161.592 297.721 161.652C298.165 161.7 298.567 161.766 298.927 161.85C299.299 161.934 299.641 162.024 299.953 162.12L299.629 163.452ZM302.527 169.518C302.527 170.682 302.785 171.552 303.301 172.128C303.829 172.692 304.537 172.974 305.425 172.974C306.301 172.974 306.985 172.692 307.477 172.128C307.969 171.564 308.215 170.718 308.215 169.59C308.215 168.39 307.951 167.496 307.423 166.908C306.907 166.32 306.199 166.026 305.299 166.026C304.399 166.026 303.709 166.32 303.229 166.908C302.761 167.484 302.527 168.354 302.527 169.518ZM300.997 169.5C300.997 168.588 301.141 167.832 301.429 167.232C301.717 166.62 302.083 166.134 302.527 165.774C302.971 165.402 303.445 165.144 303.949 165C304.465 164.844 304.951 164.766 305.407 164.766C305.839 164.766 306.307 164.838 306.811 164.982C307.327 165.114 307.801 165.36 308.233 165.72C308.665 166.068 309.025 166.542 309.313 167.142C309.601 167.73 309.745 168.48 309.745 169.392C309.745 170.34 309.595 171.126 309.295 171.75C309.007 172.374 308.641 172.872 308.197 173.244C307.753 173.604 307.273 173.856 306.757 174C306.241 174.156 305.761 174.234 305.317 174.234C304.861 174.234 304.381 174.162 303.877 174.018C303.373 173.874 302.905 173.628 302.473 173.28C302.053 172.92 301.699 172.434 301.411 171.822C301.135 171.21 300.997 170.436 300.997 169.5ZM311.855 166.746C311.867 166.494 311.837 165.948 311.765 165.108L313.097 164.928L313.295 166.08C313.655 165.84 314.009 165.63 314.357 165.45C314.717 165.27 315.083 165.114 315.455 164.982C315.827 164.838 316.187 164.766 316.535 164.766C317.027 164.766 317.435 164.826 317.759 164.946C318.095 165.054 318.365 165.24 318.569 165.504C318.773 165.768 318.917 166.116 319.001 166.548C319.097 166.98 319.145 167.52 319.145 168.168V174H317.705V168.33C317.705 167.97 317.699 167.652 317.687 167.376C317.675 167.088 317.621 166.848 317.525 166.656C317.441 166.452 317.303 166.296 317.111 166.188C316.931 166.08 316.673 166.026 316.337 166.026C316.025 166.026 315.695 166.098 315.347 166.242C314.999 166.374 314.657 166.53 314.321 166.71C313.985 166.89 313.643 167.1 313.295 167.34V174H311.855V166.746ZM321.699 166.746C321.711 166.494 321.681 165.948 321.609 165.108L322.941 164.928L323.139 166.08C323.499 165.84 323.853 165.63 324.201 165.45C324.561 165.27 324.927 165.114 325.299 164.982C325.671 164.838 326.031 164.766 326.379 164.766C326.871 164.766 327.279 164.826 327.603 164.946C327.939 165.054 328.209 165.24 328.413 165.504C328.617 165.768 328.761 166.116 328.845 166.548C328.941 166.98 328.989 167.52 328.989 168.168V174H327.549V168.33C327.549 167.97 327.543 167.652 327.531 167.376C327.519 167.088 327.465 166.848 327.369 166.656C327.285 166.452 327.147 166.296 326.955 166.188C326.775 166.08 326.517 166.026 326.181 166.026C325.869 166.026 325.539 166.098 325.191 166.242C324.843 166.374 324.501 166.53 324.165 166.71C323.829 166.89 323.487 167.1 323.139 167.34V174H321.699V166.746ZM338.221 173.784C337.945 173.868 337.657 173.94 337.357 174C337.069 174.06 336.745 174.114 336.385 174.162C336.037 174.21 335.671 174.234 335.287 174.234C334.687 174.234 334.129 174.15 333.613 173.982C333.097 173.814 332.647 173.544 332.263 173.172C331.879 172.8 331.573 172.32 331.345 171.732C331.129 171.132 331.021 170.4 331.021 169.536C331.021 168.756 331.129 168.072 331.345 167.484C331.561 166.884 331.855 166.386 332.227 165.99C332.611 165.582 333.055 165.276 333.559 165.072C334.075 164.868 334.633 164.766 335.233 164.766C335.821 164.766 336.331 164.88 336.763 165.108C337.195 165.336 337.549 165.648 337.825 166.044C338.113 166.428 338.323 166.884 338.455 167.412C338.599 167.928 338.671 168.474 338.671 169.05L338.401 169.842H332.587C332.587 170.214 332.635 170.586 332.731 170.958C332.827 171.33 332.989 171.666 333.217 171.966C333.457 172.266 333.763 172.512 334.135 172.704C334.519 172.884 334.993 172.974 335.557 172.974C335.917 172.974 336.247 172.956 336.547 172.92C336.847 172.872 337.105 172.824 337.321 172.776C337.549 172.716 337.759 172.65 337.951 172.578L338.221 173.784ZM337.177 168.69C337.177 168.606 337.159 168.42 337.123 168.132C337.087 167.844 337.003 167.544 336.871 167.232C336.739 166.92 336.535 166.644 336.259 166.404C335.983 166.152 335.617 166.026 335.161 166.026C334.657 166.026 334.243 166.134 333.919 166.35C333.595 166.554 333.337 166.8 333.145 167.088C332.953 167.376 332.821 167.67 332.749 167.97C332.677 168.27 332.641 168.51 332.641 168.69H337.177ZM346.246 166.26C346.042 166.212 345.76 166.164 345.4 166.116C345.04 166.056 344.674 166.026 344.302 166.026C343.762 166.026 343.318 166.134 342.97 166.35C342.634 166.566 342.37 166.848 342.178 167.196C341.986 167.532 341.854 167.91 341.782 168.33C341.71 168.738 341.674 169.14 341.674 169.536C341.674 170.148 341.752 170.676 341.908 171.12C342.064 171.552 342.268 171.906 342.52 172.182C342.784 172.458 343.084 172.662 343.42 172.794C343.756 172.914 344.11 172.974 344.482 172.974C344.734 172.974 344.974 172.962 345.202 172.938C345.442 172.902 345.658 172.866 345.85 172.83C346.054 172.782 346.246 172.728 346.426 172.668L346.714 173.874C346.462 173.946 346.228 174.006 346.012 174.054C345.796 174.102 345.538 174.144 345.238 174.18C344.95 174.216 344.638 174.234 344.302 174.234C343.642 174.234 343.054 174.15 342.538 173.982C342.022 173.814 341.584 173.544 341.224 173.172C340.876 172.8 340.606 172.314 340.414 171.714C340.234 171.114 340.144 170.382 340.144 169.518C340.144 168.678 340.258 167.958 340.486 167.358C340.726 166.746 341.038 166.254 341.422 165.882C341.806 165.498 342.244 165.216 342.736 165.036C343.24 164.856 343.762 164.766 344.302 164.766C344.59 164.766 344.866 164.784 345.13 164.82C345.406 164.844 345.646 164.874 345.85 164.91C346.09 164.958 346.318 165.006 346.534 165.054L346.246 166.26ZM350.593 162.246V164.946H353.203V166.116H350.593V170.922C350.593 171.318 350.599 171.648 350.611 171.912C350.635 172.176 350.677 172.386 350.737 172.542C350.797 172.698 350.881 172.812 350.989 172.884C351.097 172.944 351.235 172.974 351.403 172.974C351.859 172.962 352.387 172.794 352.987 172.47L353.419 173.568C353.023 173.832 352.651 174.006 352.303 174.09C351.967 174.186 351.631 174.234 351.295 174.234C350.503 174.234 349.945 174.012 349.621 173.568C349.309 173.112 349.153 172.362 349.153 171.318V166.116H347.497V164.946H349.153V162.426L350.593 162.246ZM361.67 173.784C361.394 173.868 361.106 173.94 360.806 174C360.518 174.06 360.194 174.114 359.834 174.162C359.486 174.21 359.12 174.234 358.736 174.234C358.136 174.234 357.578 174.15 357.062 173.982C356.546 173.814 356.096 173.544 355.712 173.172C355.328 172.8 355.022 172.32 354.794 171.732C354.578 171.132 354.47 170.4 354.47 169.536C354.47 168.756 354.578 168.072 354.794 167.484C355.01 166.884 355.304 166.386 355.676 165.99C356.06 165.582 356.504 165.276 357.008 165.072C357.524 164.868 358.082 164.766 358.682 164.766C359.27 164.766 359.78 164.88 360.212 165.108C360.644 165.336 360.998 165.648 361.274 166.044C361.562 166.428 361.772 166.884 361.904 167.412C362.048 167.928 362.12 168.474 362.12 169.05L361.85 169.842H356.036C356.036 170.214 356.084 170.586 356.18 170.958C356.276 171.33 356.438 171.666 356.666 171.966C356.906 172.266 357.212 172.512 357.584 172.704C357.968 172.884 358.442 172.974 359.006 172.974C359.366 172.974 359.696 172.956 359.996 172.92C360.296 172.872 360.554 172.824 360.77 172.776C360.998 172.716 361.208 172.65 361.4 172.578L361.67 173.784ZM360.626 168.69C360.626 168.606 360.608 168.42 360.572 168.132C360.536 167.844 360.452 167.544 360.32 167.232C360.188 166.92 359.984 166.644 359.708 166.404C359.432 166.152 359.066 166.026 358.61 166.026C358.106 166.026 357.692 166.134 357.368 166.35C357.044 166.554 356.786 166.8 356.594 167.088C356.402 167.376 356.27 167.67 356.198 167.97C356.126 168.27 356.09 168.51 356.09 168.69H360.626ZM364.097 166.404C364.097 166.128 364.067 165.696 364.007 165.108L365.339 164.928L365.483 166.242H365.501C365.717 165.966 365.927 165.726 366.131 165.522C366.335 165.318 366.545 165.144 366.761 165C366.989 164.844 367.205 164.766 367.409 164.766C367.685 164.754 368.069 164.784 368.561 164.856L368.237 166.242C367.841 166.17 367.565 166.14 367.409 166.152C367.205 166.152 366.989 166.248 366.761 166.44C366.533 166.632 366.335 166.836 366.167 167.052C365.951 167.316 365.741 167.616 365.537 167.952V174H364.097V166.404Z" fill="white"/>
<rect x="11" y="117" width="42" height="42" rx="8" fill="#FFF1D5"/>
<rect x="18" y="129" width="60" height="60" rx="16" fill="#ACAEFF"/>
<path d="M47.0711 157.136L43.9271 157.736L43.5431 156.104L47.8151 154.928H48.9911V167H47.0711V157.136Z" fill="white"/>
<defs>
<radialGradient id="paint0_radial_61_11863" cx="0" cy="0" r="1" gradientUnits="userSpaceOnUse" gradientTransform="translate(178 48) rotate(90) scale(11 101)">
<stop offset="0.415" stop-color="#3E79E5"/>
<stop offset="1" stop-color="#003465"/>
</radialGradient>
</defs>
</svg>
