<svg width="314" height="200" viewBox="0 0 314 200" fill="none" xmlns="http://www.w3.org/2000/svg">
<rect x="146" width="168" height="168" rx="20" fill="white" fill-opacity="0.2"/>
<rect x="230" y="118" width="10" height="30" rx="5" fill="#03B962"/>
<rect x="247" y="94" width="10" height="54" rx="5" fill="#03B962"/>
<rect x="264" y="103" width="10" height="45" rx="5" fill="#03B962"/>
<rect x="281" y="86" width="10" height="62" rx="5" fill="#03B962"/>
<path d="M214.314 50.848L210.122 51.648L209.61 49.472L215.306 47.904H216.874V64H214.314V50.848ZM228.236 64.416C227.297 64.416 226.412 64.3093 225.58 64.096C224.769 63.904 224.055 63.5733 223.436 63.104C222.817 62.6347 222.327 62.0267 221.964 61.28C221.601 60.512 221.42 59.5733 221.42 58.464C221.42 57.6747 221.559 56.9707 221.836 56.352C222.113 55.712 222.444 55.1573 222.828 54.688C223.233 54.1973 223.671 53.7813 224.14 53.44C224.609 53.0773 225.036 52.768 225.42 52.512C224.396 51.9573 223.575 51.296 222.956 50.528C222.359 49.7387 222.06 48.7893 222.06 47.68C222.06 46.6987 222.252 45.8453 222.636 45.12C223.02 44.3733 223.511 43.7653 224.108 43.296C224.727 42.8267 225.409 42.4747 226.156 42.24C226.903 42.0053 227.649 41.888 228.396 41.888C229.335 41.888 230.188 42.0267 230.956 42.304C231.745 42.56 232.417 42.944 232.972 43.456C233.527 43.9467 233.953 44.5547 234.252 45.28C234.572 45.984 234.732 46.784 234.732 47.68C234.732 48.2347 234.636 48.768 234.444 49.28C234.273 49.7707 234.039 50.24 233.74 50.688C233.463 51.136 233.132 51.552 232.748 51.936C232.385 52.32 232.012 52.672 231.628 52.992C232.097 53.248 232.556 53.5253 233.004 53.824C233.452 54.1227 233.847 54.4853 234.188 54.912C234.551 55.3173 234.839 55.8187 235.052 56.416C235.265 56.992 235.372 57.6747 235.372 58.464C235.372 59.5947 235.169 60.544 234.764 61.312C234.38 62.0587 233.857 62.6667 233.196 63.136C232.535 63.6053 231.767 63.936 230.892 64.128C230.039 64.32 229.153 64.416 228.236 64.416ZM229.548 51.968C229.825 51.712 230.113 51.4453 230.412 51.168C230.711 50.8907 230.977 50.5813 231.212 50.24C231.447 49.8987 231.639 49.5253 231.788 49.12C231.937 48.6933 232.012 48.2133 232.012 47.68C232.012 47.232 231.948 46.7947 231.82 46.368C231.713 45.9413 231.521 45.568 231.244 45.248C230.967 44.9067 230.593 44.64 230.124 44.448C229.655 44.2347 229.079 44.128 228.396 44.128C227.799 44.128 227.276 44.2347 226.828 44.448C226.38 44.6613 225.996 44.9387 225.676 45.28C225.377 45.6 225.153 45.9733 225.004 46.4C224.855 46.8267 224.78 47.2533 224.78 47.68C224.78 48.256 224.897 48.7573 225.132 49.184C225.388 49.5893 225.729 49.9627 226.156 50.304C226.604 50.624 227.116 50.9227 227.692 51.2C228.268 51.456 228.887 51.712 229.548 51.968ZM224.14 58.464C224.14 59.552 224.471 60.448 225.132 61.152C225.815 61.8347 226.86 62.176 228.268 62.176C229.676 62.176 230.753 61.8347 231.5 61.152C232.268 60.4693 232.652 59.5733 232.652 58.464C232.652 57.8453 232.524 57.312 232.268 56.864C232.033 56.416 231.692 56.0213 231.244 55.68C230.796 55.3173 230.241 54.976 229.58 54.656C228.94 54.336 228.215 54.0053 227.404 53.664C226.999 53.92 226.604 54.1973 226.22 54.496C225.857 54.7947 225.516 55.136 225.196 55.52C224.876 55.904 224.62 56.3413 224.428 56.832C224.236 57.3013 224.14 57.8453 224.14 58.464ZM239.366 59.84H242.086L240.294 68.096L238.278 67.712L239.366 59.84ZM246.894 47.904H257.038V50.144H249.262L248.686 57.28C248.92 57.216 249.166 57.1627 249.422 57.12C249.678 57.056 249.966 57.0133 250.286 56.992C250.606 56.9493 250.958 56.928 251.342 56.928C253.347 56.928 254.936 57.4613 256.11 58.528C257.283 59.5947 257.87 61.1947 257.87 63.328C257.87 64.7147 257.656 65.856 257.23 66.752C256.803 67.648 256.238 68.352 255.534 68.864C254.83 69.376 254.03 69.728 253.134 69.92C252.259 70.1333 251.363 70.24 250.446 70.24C248.355 70.1973 246.307 69.6107 244.302 68.48L245.166 66.336C247.214 67.4453 248.984 68 250.478 68C252.142 68 253.336 67.5947 254.062 66.784C254.787 65.9947 255.15 64.8427 255.15 63.328C255.15 62.7093 255.075 62.144 254.926 61.632C254.776 61.12 254.542 60.6827 254.222 60.32C253.902 59.9573 253.475 59.68 252.942 59.488C252.43 59.2747 251.8 59.168 251.054 59.168C250.542 59.168 250.051 59.2107 249.582 59.296C249.112 59.36 248.675 59.4453 248.27 59.552C247.886 59.6587 247.512 59.7867 247.15 59.936L245.902 59.744L246.894 47.904ZM269.955 42.176H273.379L278.307 55.168C278.585 55.9147 278.841 56.608 279.075 57.248C279.31 57.8667 279.513 58.4213 279.683 58.912C279.897 59.4667 280.078 59.9787 280.227 60.448H280.291C280.419 59.9787 280.579 59.4667 280.771 58.912C280.942 58.4213 281.134 57.8667 281.347 57.248C281.561 56.608 281.817 55.9147 282.115 55.168L287.139 42.176H290.563L291.683 64H288.963L288.419 52C288.377 50.9547 288.345 50.0693 288.323 49.344C288.302 48.6187 288.291 48.0213 288.291 47.552V46.208H288.227C288.099 46.528 287.939 46.9653 287.747 47.52C287.577 47.9893 287.353 48.5973 287.075 49.344C286.819 50.0693 286.499 50.9547 286.115 52L281.603 64H278.883L274.339 52C273.934 50.976 273.603 50.1013 273.347 49.376C273.091 48.6293 272.878 48.0213 272.707 47.552C272.515 46.9973 272.366 46.5493 272.259 46.208H272.195C272.217 46.5493 272.238 46.9973 272.259 47.552C272.281 48.448 272.249 49.9307 272.163 52L271.523 64H268.803L269.955 42.176Z" fill="white"/>
<path d="M215.284 18.816H216.568L218.416 23.688C218.52 23.968 218.616 24.228 218.704 24.468C218.792 24.7 218.868 24.908 218.932 25.092C219.012 25.3 219.08 25.492 219.136 25.668H219.16C219.208 25.492 219.268 25.3 219.34 25.092C219.404 24.908 219.476 24.7 219.556 24.468C219.636 24.228 219.732 23.968 219.844 23.688L221.728 18.816H223.012L223.432 27H222.412L222.208 22.5C222.192 22.108 222.18 21.776 222.172 21.504C222.164 21.232 222.16 21.008 222.16 20.832V20.328H222.136C222.088 20.448 222.028 20.612 221.956 20.82C221.892 20.996 221.808 21.224 221.704 21.504C221.608 21.776 221.488 22.108 221.344 22.5L219.652 27H218.632L216.928 22.5C216.776 22.116 216.652 21.788 216.556 21.516C216.46 21.236 216.38 21.008 216.316 20.832C216.244 20.624 216.188 20.456 216.148 20.328H216.124C216.132 20.456 216.14 20.624 216.148 20.832C216.156 21.168 216.144 21.724 216.112 22.5L215.872 27H214.852L215.284 18.816ZM224.913 22.908C224.913 22.132 225.033 21.476 225.273 20.94C225.521 20.404 225.833 19.972 226.209 19.644C226.593 19.316 227.017 19.08 227.481 18.936C227.953 18.784 228.413 18.708 228.861 18.708C229.309 18.708 229.765 18.772 230.229 18.9C230.701 19.02 231.125 19.24 231.501 19.56C231.885 19.872 232.197 20.3 232.437 20.844C232.685 21.388 232.809 22.08 232.809 22.92C232.809 23.704 232.685 24.364 232.437 24.9C232.197 25.436 231.885 25.872 231.501 26.208C231.125 26.544 230.701 26.788 230.229 26.94C229.765 27.084 229.309 27.156 228.861 27.156C228.413 27.156 227.953 27.084 227.481 26.94C227.017 26.796 226.593 26.56 226.209 26.232C225.833 25.904 225.521 25.468 225.273 24.924C225.033 24.38 224.913 23.708 224.913 22.908ZM231.669 22.968C231.669 21.888 231.417 21.068 230.913 20.508C230.417 19.948 229.749 19.668 228.909 19.668C228.485 19.668 228.097 19.736 227.745 19.872C227.401 20 227.101 20.196 226.845 20.46C226.597 20.724 226.401 21.056 226.257 21.456C226.121 21.848 226.053 22.312 226.053 22.848C226.053 23.928 226.301 24.756 226.797 25.332C227.301 25.908 227.973 26.196 228.813 26.196C229.229 26.196 229.613 26.132 229.965 26.004C230.317 25.868 230.617 25.664 230.865 25.392C231.121 25.12 231.317 24.784 231.453 24.384C231.597 23.984 231.669 23.512 231.669 22.968ZM234.474 18.816H235.482V27H234.474V18.816ZM241.779 19.944C241.587 19.896 241.387 19.852 241.179 19.812C240.995 19.772 240.783 19.74 240.543 19.716C240.311 19.684 240.067 19.668 239.811 19.668C239.219 19.668 238.795 19.76 238.539 19.944C238.283 20.12 238.155 20.396 238.155 20.772C238.163 21.068 238.271 21.32 238.479 21.528C238.687 21.728 238.947 21.916 239.259 22.092C239.571 22.26 239.911 22.428 240.279 22.596C240.655 22.756 240.999 22.944 241.311 23.16C241.623 23.368 241.883 23.616 242.091 23.904C242.307 24.184 242.415 24.528 242.415 24.936C242.415 25.408 242.311 25.788 242.103 26.076C241.903 26.364 241.647 26.588 241.335 26.748C241.023 26.908 240.679 27.016 240.303 27.072C239.935 27.128 239.583 27.156 239.247 27.156C238.927 27.156 238.635 27.136 238.371 27.096C238.107 27.056 237.879 27.012 237.687 26.964C237.463 26.908 237.259 26.844 237.075 26.772L237.315 25.8C237.499 25.88 237.695 25.948 237.903 26.004C238.087 26.052 238.291 26.096 238.515 26.136C238.747 26.176 238.991 26.196 239.247 26.196C239.559 26.196 239.843 26.176 240.099 26.136C240.363 26.096 240.591 26.032 240.783 25.944C240.975 25.856 241.123 25.74 241.227 25.596C241.339 25.452 241.395 25.276 241.395 25.068C241.387 24.756 241.283 24.504 241.083 24.312C240.891 24.112 240.631 23.924 240.303 23.748C239.983 23.564 239.635 23.388 239.259 23.22C238.891 23.052 238.551 22.86 238.239 22.644C237.927 22.428 237.663 22.172 237.447 21.876C237.239 21.58 237.135 21.212 237.135 20.772C237.135 20.516 237.179 20.264 237.267 20.016C237.355 19.768 237.503 19.548 237.711 19.356C237.927 19.164 238.203 19.008 238.539 18.888C238.883 18.768 239.307 18.708 239.811 18.708C240.099 18.708 240.371 18.724 240.627 18.756C240.891 18.78 241.119 18.808 241.311 18.84C241.535 18.88 241.747 18.924 241.947 18.972L241.779 19.944ZM247.658 26.076H249.278C249.718 26.076 250.13 26.02 250.514 25.908C250.906 25.796 251.246 25.616 251.534 25.368C251.83 25.112 252.062 24.78 252.23 24.372C252.398 23.964 252.482 23.468 252.482 22.884C252.482 22.34 252.406 21.872 252.254 21.48C252.102 21.08 251.886 20.752 251.606 20.496C251.334 20.24 250.998 20.052 250.598 19.932C250.206 19.804 249.766 19.74 249.278 19.74H247.658V26.076ZM246.65 18.816H249.278C249.926 18.816 250.51 18.896 251.03 19.056C251.558 19.216 252.01 19.464 252.386 19.8C252.762 20.136 253.05 20.56 253.25 21.072C253.458 21.584 253.562 22.188 253.562 22.884C253.562 23.588 253.45 24.2 253.226 24.72C253.002 25.232 252.698 25.66 252.314 26.004C251.93 26.34 251.478 26.592 250.958 26.76C250.438 26.92 249.878 27 249.278 27H246.65V18.816ZM255.228 18.816H260.244V19.74H256.236V22.356H259.956V23.256H256.236V26.076H260.364V27H255.228V18.816ZM262.001 18.816H264.017C264.457 18.816 264.857 18.856 265.217 18.936C265.585 19.008 265.897 19.136 266.153 19.32C266.409 19.496 266.605 19.732 266.741 20.028C266.877 20.324 266.945 20.696 266.945 21.144C266.937 21.64 266.853 22.044 266.693 22.356C266.533 22.66 266.337 22.908 266.105 23.1C265.873 23.284 265.605 23.42 265.301 23.508V23.532C265.333 23.564 265.381 23.624 265.445 23.712C265.517 23.792 265.577 23.864 265.625 23.928L267.941 27H266.753L264.377 23.748H263.009V27H262.001V18.816ZM265.925 21.312C265.925 20.976 265.881 20.704 265.793 20.496C265.713 20.28 265.589 20.116 265.421 20.004C265.261 19.892 265.061 19.816 264.821 19.776C264.581 19.736 264.309 19.716 264.005 19.716H263.009V22.848H264.197C264.509 22.848 264.773 22.808 264.989 22.728C265.205 22.648 265.381 22.54 265.517 22.404C265.653 22.26 265.753 22.096 265.817 21.912C265.881 21.728 265.917 21.528 265.925 21.312ZM268.951 18.816H269.911L274.207 25.308H274.231C274.215 25.076 274.203 24.828 274.195 24.564C274.179 24.34 274.167 24.084 274.159 23.796C274.159 23.5 274.159 23.2 274.159 22.896V18.816H275.119V27H274.159L269.863 20.484H269.839C269.847 20.724 269.859 20.976 269.875 21.24C269.883 21.472 269.891 21.732 269.899 22.02C269.907 22.308 269.911 22.604 269.911 22.908V27H268.951V18.816ZM277.236 18.816H278.244V27H277.236V18.816ZM280.353 18.816H285.369V19.74H281.361V22.356H285.081V23.256H281.361V26.076H285.489V27H280.353V18.816ZM287.126 18.816H289.142C289.582 18.816 289.982 18.856 290.342 18.936C290.71 19.008 291.022 19.136 291.278 19.32C291.534 19.496 291.73 19.732 291.866 20.028C292.002 20.324 292.07 20.696 292.07 21.144C292.062 21.64 291.978 22.044 291.818 22.356C291.658 22.66 291.462 22.908 291.23 23.1C290.998 23.284 290.73 23.42 290.426 23.508V23.532C290.458 23.564 290.506 23.624 290.57 23.712C290.642 23.792 290.702 23.864 290.75 23.928L293.066 27H291.878L289.502 23.748H288.134V27H287.126V18.816ZM291.05 21.312C291.05 20.976 291.006 20.704 290.918 20.496C290.838 20.28 290.714 20.116 290.546 20.004C290.386 19.892 290.186 19.816 289.946 19.776C289.706 19.736 289.434 19.716 289.13 19.716H288.134V22.848H289.322C289.634 22.848 289.898 22.808 290.114 22.728C290.33 22.648 290.506 22.54 290.642 22.404C290.778 22.26 290.878 22.096 290.942 21.912C291.006 21.728 291.042 21.528 291.05 21.312Z" fill="white"/>
<rect x="42" y="32" width="168" height="168" rx="20" fill="white"/>
<path d="M60.236 121.999H61.991C62.4677 121.999 62.914 121.938 63.33 121.817C63.7547 121.696 64.123 121.501 64.435 121.232C64.7557 120.955 65.007 120.595 65.189 120.153C65.371 119.711 65.462 119.174 65.462 118.541C65.462 117.952 65.3797 117.445 65.215 117.02C65.0503 116.587 64.8163 116.231 64.513 115.954C64.2183 115.677 63.8543 115.473 63.421 115.343C62.9963 115.204 62.5197 115.135 61.991 115.135H60.236V121.999ZM59.144 114.134H61.991C62.693 114.134 63.3257 114.221 63.889 114.394C64.461 114.567 64.9507 114.836 65.358 115.2C65.7653 115.564 66.0773 116.023 66.294 116.578C66.5193 117.133 66.632 117.787 66.632 118.541C66.632 119.304 66.5107 119.967 66.268 120.53C66.0253 121.085 65.696 121.548 65.28 121.921C64.864 122.285 64.3743 122.558 63.811 122.74C63.2477 122.913 62.641 123 61.991 123H59.144V114.134ZM72.142 122.285H72.116C72.038 122.346 71.9253 122.428 71.778 122.532C71.6306 122.627 71.4616 122.723 71.271 122.818C71.0803 122.913 70.868 122.996 70.634 123.065C70.4086 123.134 70.179 123.169 69.945 123.169C69.6243 123.169 69.3513 123.126 69.126 123.039C68.9006 122.961 68.7186 122.827 68.58 122.636C68.4413 122.445 68.3416 122.194 68.281 121.882C68.2203 121.57 68.19 121.18 68.19 120.712V116.461H69.23V120.556C69.23 120.816 69.2343 121.05 69.243 121.258C69.2516 121.466 69.282 121.644 69.334 121.791C69.386 121.938 69.4683 122.055 69.581 122.142C69.7023 122.22 69.8713 122.259 70.088 122.259C70.3133 122.259 70.5473 122.211 70.79 122.116C71.0326 122.021 71.2536 121.912 71.453 121.791C71.687 121.652 71.9166 121.496 72.142 121.323V116.461H73.182V122.155C73.1906 122.467 73.2123 122.749 73.247 123L72.22 123.104L72.142 122.285ZM75.0847 117.514C75.0847 117.315 75.0631 117.003 75.0197 116.578L75.9817 116.448L76.0857 117.397H76.0987C76.2547 117.198 76.4064 117.024 76.5537 116.877C76.7011 116.73 76.8527 116.604 77.0087 116.5C77.1734 116.387 77.3294 116.331 77.4767 116.331C77.6761 116.322 77.9534 116.344 78.3087 116.396L78.0747 117.397C77.7887 117.345 77.5894 117.323 77.4767 117.332C77.3294 117.332 77.1734 117.401 77.0087 117.54C76.8441 117.679 76.7011 117.826 76.5797 117.982C76.4237 118.173 76.2721 118.389 76.1247 118.632V123H75.0847V117.514ZM84.0972 122.844C83.8979 122.905 83.6899 122.957 83.4732 123C83.2652 123.043 83.0312 123.082 82.7712 123.117C82.5199 123.152 82.2555 123.169 81.9782 123.169C81.5449 123.169 81.1419 123.108 80.7692 122.987C80.3965 122.866 80.0715 122.671 79.7942 122.402C79.5169 122.133 79.2959 121.787 79.1312 121.362C78.9752 120.929 78.8972 120.4 78.8972 119.776C78.8972 119.213 78.9752 118.719 79.1312 118.294C79.2872 117.861 79.4995 117.501 79.7682 117.215C80.0455 116.92 80.3662 116.699 80.7302 116.552C81.1029 116.405 81.5059 116.331 81.9392 116.331C82.3639 116.331 82.7322 116.413 83.0442 116.578C83.3562 116.743 83.6119 116.968 83.8112 117.254C84.0192 117.531 84.1709 117.861 84.2662 118.242C84.3702 118.615 84.4222 119.009 84.4222 119.425L84.2272 119.997H80.0282C80.0282 120.266 80.0629 120.534 80.1322 120.803C80.2015 121.072 80.3185 121.314 80.4832 121.531C80.6565 121.748 80.8775 121.925 81.1462 122.064C81.4235 122.194 81.7659 122.259 82.1732 122.259C82.4332 122.259 82.6715 122.246 82.8882 122.22C83.1049 122.185 83.2912 122.151 83.4472 122.116C83.6119 122.073 83.7635 122.025 83.9022 121.973L84.0972 122.844ZM83.3432 119.165C83.3432 119.104 83.3302 118.97 83.3042 118.762C83.2782 118.554 83.2175 118.337 83.1222 118.112C83.0269 117.887 82.8795 117.687 82.6802 117.514C82.4809 117.332 82.2165 117.241 81.8872 117.241C81.5232 117.241 81.2242 117.319 80.9902 117.475C80.7562 117.622 80.5699 117.8 80.4312 118.008C80.2925 118.216 80.1972 118.428 80.1452 118.645C80.0932 118.862 80.0672 119.035 80.0672 119.165H83.3432ZM82.7062 112.977L83.3822 113.77L80.9122 115.187L80.4702 114.602L82.7062 112.977ZM90.6734 122.844C90.474 122.905 90.266 122.957 90.0494 123C89.8414 123.043 89.6074 123.082 89.3474 123.117C89.096 123.152 88.8317 123.169 88.5544 123.169C88.121 123.169 87.718 123.108 87.3454 122.987C86.9727 122.866 86.6477 122.671 86.3704 122.402C86.093 122.133 85.872 121.787 85.7074 121.362C85.5514 120.929 85.4734 120.4 85.4734 119.776C85.4734 119.213 85.5514 118.719 85.7074 118.294C85.8634 117.861 86.0757 117.501 86.3444 117.215C86.6217 116.92 86.9424 116.699 87.3064 116.552C87.679 116.405 88.082 116.331 88.5154 116.331C88.94 116.331 89.3084 116.413 89.6204 116.578C89.9324 116.743 90.188 116.968 90.3874 117.254C90.5954 117.531 90.747 117.861 90.8424 118.242C90.9464 118.615 90.9984 119.009 90.9984 119.425L90.8034 119.997H86.6044C86.6044 120.266 86.639 120.534 86.7084 120.803C86.7777 121.072 86.8947 121.314 87.0594 121.531C87.2327 121.748 87.4537 121.925 87.7224 122.064C87.9997 122.194 88.342 122.259 88.7494 122.259C89.0094 122.259 89.2477 122.246 89.4644 122.22C89.681 122.185 89.8674 122.151 90.0234 122.116C90.188 122.073 90.3397 122.025 90.4784 121.973L90.6734 122.844ZM89.9194 119.165C89.9194 119.104 89.9064 118.97 89.8804 118.762C89.8544 118.554 89.7937 118.337 89.6984 118.112C89.603 117.887 89.4557 117.687 89.2564 117.514C89.057 117.332 88.7927 117.241 88.4634 117.241C88.0994 117.241 87.8004 117.319 87.5664 117.475C87.3324 117.622 87.146 117.8 87.0074 118.008C86.8687 118.216 86.7734 118.428 86.7214 118.645C86.6694 118.862 86.6434 119.035 86.6434 119.165H89.9194ZM95.3972 117.969C95.3972 117.657 95.3756 117.193 95.3322 116.578L96.2942 116.448L96.4112 117.15C96.5846 117.003 96.7622 116.873 96.9442 116.76C97.1349 116.639 97.3386 116.539 97.5552 116.461C97.7806 116.374 98.0189 116.331 98.2702 116.331C98.6256 116.331 98.9592 116.392 99.2712 116.513C99.5919 116.634 99.8692 116.829 100.103 117.098C100.346 117.367 100.537 117.718 100.675 118.151C100.814 118.576 100.883 119.1 100.883 119.724C100.883 120.357 100.788 120.894 100.597 121.336C100.415 121.769 100.173 122.125 99.8692 122.402C99.5746 122.671 99.2366 122.866 98.8552 122.987C98.4826 123.108 98.1012 123.169 97.7112 123.169C97.2952 123.16 96.8706 123.108 96.4372 123.013V125.834L95.3972 125.964V117.969ZM97.7112 122.259C98.0752 122.259 98.3872 122.194 98.6472 122.064C98.9072 121.934 99.1196 121.756 99.2842 121.531C99.4576 121.297 99.5832 121.033 99.6612 120.738C99.7392 120.435 99.7782 120.114 99.7782 119.776C99.7782 119.473 99.7479 119.169 99.6872 118.866C99.6352 118.563 99.5442 118.294 99.4142 118.06C99.2929 117.817 99.1282 117.622 98.9202 117.475C98.7122 117.319 98.4566 117.241 98.1532 117.241C97.9279 117.241 97.7156 117.284 97.5162 117.371C97.3169 117.449 97.1262 117.549 96.9442 117.67C96.7709 117.783 96.6019 117.913 96.4372 118.06V122.051C96.5326 122.086 96.6366 122.12 96.7492 122.155C96.8706 122.181 97.0092 122.207 97.1652 122.233C97.3299 122.25 97.5119 122.259 97.7112 122.259ZM102.418 117.514C102.418 117.315 102.396 117.003 102.353 116.578L103.315 116.448L103.419 117.397H103.432C103.588 117.198 103.739 117.024 103.887 116.877C104.034 116.73 104.186 116.604 104.342 116.5C104.506 116.387 104.662 116.331 104.81 116.331C105.009 116.322 105.286 116.344 105.642 116.396L105.408 117.397C105.122 117.345 104.922 117.323 104.81 117.332C104.662 117.332 104.506 117.401 104.342 117.54C104.177 117.679 104.034 117.826 103.913 117.982C103.757 118.173 103.605 118.389 103.458 118.632V123H102.418V117.514ZM111.43 122.844C111.231 122.905 111.023 122.957 110.806 123C110.598 123.043 110.364 123.082 110.104 123.117C109.853 123.152 109.589 123.169 109.311 123.169C108.878 123.169 108.475 123.108 108.102 122.987C107.73 122.866 107.405 122.671 107.127 122.402C106.85 122.133 106.629 121.787 106.464 121.362C106.308 120.929 106.23 120.4 106.23 119.776C106.23 119.213 106.308 118.719 106.464 118.294C106.62 117.861 106.833 117.501 107.101 117.215C107.379 116.92 107.699 116.699 108.063 116.552C108.436 116.405 108.839 116.331 109.272 116.331C109.697 116.331 110.065 116.413 110.377 116.578C110.689 116.743 110.945 116.968 111.144 117.254C111.352 117.531 111.504 117.861 111.599 118.242C111.703 118.615 111.755 119.009 111.755 119.425L111.56 119.997H107.361C107.361 120.266 107.396 120.534 107.465 120.803C107.535 121.072 107.652 121.314 107.816 121.531C107.99 121.748 108.211 121.925 108.479 122.064C108.757 122.194 109.099 122.259 109.506 122.259C109.766 122.259 110.005 122.246 110.221 122.22C110.438 122.185 110.624 122.151 110.78 122.116C110.945 122.073 111.097 122.025 111.235 121.973L111.43 122.844ZM110.676 119.165C110.676 119.104 110.663 118.97 110.637 118.762C110.611 118.554 110.551 118.337 110.455 118.112C110.36 117.887 110.213 117.687 110.013 117.514C109.814 117.332 109.55 117.241 109.22 117.241C108.856 117.241 108.557 117.319 108.323 117.475C108.089 117.622 107.903 117.8 107.764 118.008C107.626 118.216 107.53 118.428 107.478 118.645C107.426 118.862 107.4 119.035 107.4 119.165H110.676ZM108.921 112.99H109.441L111.196 114.771L110.676 115.2L109.181 113.939L107.686 115.2L107.166 114.771L108.921 112.99ZM114.691 114.511V116.461H116.576V117.306H114.691V120.777C114.691 121.063 114.696 121.301 114.704 121.492C114.722 121.683 114.752 121.834 114.795 121.947C114.839 122.06 114.899 122.142 114.977 122.194C115.055 122.237 115.155 122.259 115.276 122.259C115.606 122.25 115.987 122.129 116.42 121.895L116.732 122.688C116.446 122.879 116.178 123.004 115.926 123.065C115.684 123.134 115.441 123.169 115.198 123.169C114.626 123.169 114.223 123.009 113.989 122.688C113.764 122.359 113.651 121.817 113.651 121.063V117.306H112.455V116.461H113.651V114.641L114.691 114.511ZM117.776 122.233C117.776 122.025 117.849 121.847 117.997 121.7C118.144 121.544 118.326 121.466 118.543 121.466C118.768 121.466 118.959 121.544 119.115 121.7C119.271 121.847 119.349 122.025 119.349 122.233C119.349 122.45 119.271 122.632 119.115 122.779C118.959 122.926 118.768 123 118.543 123C118.326 123 118.144 122.926 117.997 122.779C117.849 122.632 117.776 122.45 117.776 122.233ZM117.776 117.878C117.776 117.67 117.849 117.492 117.997 117.345C118.144 117.189 118.326 117.111 118.543 117.111C118.768 117.111 118.959 117.189 119.115 117.345C119.271 117.492 119.349 117.67 119.349 117.878C119.349 118.095 119.271 118.277 119.115 118.424C118.959 118.571 118.768 118.645 118.543 118.645C118.326 118.645 118.144 118.571 117.997 118.424C117.849 118.277 117.776 118.095 117.776 117.878ZM123.686 122.506C124.397 121.943 125.034 121.392 125.597 120.855C125.84 120.63 126.074 120.396 126.299 120.153C126.533 119.91 126.741 119.672 126.923 119.438C127.105 119.204 127.248 118.983 127.352 118.775C127.465 118.558 127.521 118.363 127.521 118.19C127.521 117.913 127.43 117.687 127.248 117.514C127.075 117.332 126.728 117.241 126.208 117.241C125.939 117.241 125.679 117.263 125.428 117.306C125.177 117.349 124.951 117.393 124.752 117.436C124.518 117.497 124.293 117.562 124.076 117.631L123.764 116.799C123.989 116.712 124.245 116.634 124.531 116.565C124.765 116.504 125.038 116.452 125.35 116.409C125.671 116.357 126.009 116.331 126.364 116.331C126.65 116.331 126.927 116.361 127.196 116.422C127.473 116.474 127.716 116.569 127.924 116.708C128.141 116.838 128.31 117.016 128.431 117.241C128.561 117.466 128.626 117.752 128.626 118.099C128.626 118.298 128.583 118.511 128.496 118.736C128.409 118.953 128.297 119.174 128.158 119.399C128.028 119.616 127.872 119.837 127.69 120.062C127.517 120.279 127.339 120.487 127.157 120.686C126.732 121.154 126.247 121.618 125.701 122.077C125.909 122.068 126.126 122.06 126.351 122.051C126.55 122.042 126.776 122.038 127.027 122.038C127.287 122.029 127.556 122.025 127.833 122.025H128.821V123H123.686V122.506ZM133.369 117.644C133.369 117.349 133.343 116.994 133.291 116.578L134.266 116.448L134.409 117.267C134.643 117.094 134.873 116.942 135.098 116.812C135.323 116.682 135.566 116.569 135.826 116.474C136.086 116.379 136.35 116.331 136.619 116.331C137.052 116.331 137.395 116.409 137.646 116.565C137.897 116.712 138.084 116.968 138.205 117.332C138.56 117.081 138.929 116.851 139.31 116.643C139.7 116.435 140.103 116.331 140.519 116.331C140.84 116.331 141.113 116.374 141.338 116.461C141.563 116.539 141.745 116.673 141.884 116.864C142.023 117.055 142.122 117.306 142.183 117.618C142.244 117.93 142.274 118.32 142.274 118.788V123H141.234V118.905C141.234 118.645 141.23 118.415 141.221 118.216C141.212 118.008 141.182 117.835 141.13 117.696C141.078 117.549 140.991 117.436 140.87 117.358C140.757 117.28 140.593 117.241 140.376 117.241C140.177 117.241 139.986 117.271 139.804 117.332C139.631 117.384 139.449 117.462 139.258 117.566C139.067 117.67 138.773 117.882 138.374 118.203V123H137.334V118.905C137.334 118.645 137.33 118.415 137.321 118.216C137.312 118.008 137.282 117.835 137.23 117.696C137.178 117.549 137.091 117.436 136.97 117.358C136.857 117.28 136.693 117.241 136.476 117.241C136.251 117.241 136.017 117.289 135.774 117.384C135.531 117.479 135.302 117.592 135.085 117.722C134.868 117.852 134.643 118.004 134.409 118.177V123H133.369V117.644ZM144.85 119.763C144.85 120.604 145.036 121.232 145.409 121.648C145.79 122.055 146.302 122.259 146.943 122.259C147.576 122.259 148.07 122.055 148.425 121.648C148.78 121.241 148.958 120.63 148.958 119.815C148.958 118.948 148.767 118.303 148.386 117.878C148.013 117.453 147.502 117.241 146.852 117.241C146.202 117.241 145.704 117.453 145.357 117.878C145.019 118.294 144.85 118.922 144.85 119.763ZM143.745 119.75C143.745 119.091 143.849 118.545 144.057 118.112C144.265 117.67 144.529 117.319 144.85 117.059C145.171 116.79 145.513 116.604 145.877 116.5C146.25 116.387 146.601 116.331 146.93 116.331C147.242 116.331 147.58 116.383 147.944 116.487C148.317 116.582 148.659 116.76 148.971 117.02C149.283 117.271 149.543 117.614 149.751 118.047C149.959 118.472 150.063 119.013 150.063 119.672C150.063 120.357 149.955 120.924 149.738 121.375C149.53 121.826 149.266 122.185 148.945 122.454C148.624 122.714 148.278 122.896 147.905 123C147.532 123.113 147.186 123.169 146.865 123.169C146.536 123.169 146.189 123.117 145.825 123.013C145.461 122.909 145.123 122.731 144.811 122.48C144.508 122.22 144.252 121.869 144.044 121.427C143.845 120.985 143.745 120.426 143.745 119.75ZM151.574 116.448L152.614 116.331V123H151.574V116.448ZM151.405 114.589C151.405 114.39 151.47 114.225 151.6 114.095C151.738 113.956 151.907 113.887 152.107 113.887C152.315 113.887 152.488 113.956 152.627 114.095C152.774 114.225 152.848 114.39 152.848 114.589C152.848 114.788 152.774 114.957 152.627 115.096C152.488 115.226 152.315 115.291 152.107 115.291C151.907 115.291 151.738 115.226 151.6 115.096C151.47 114.957 151.405 114.788 151.405 114.589ZM158.017 117.527C157.653 117.414 157.328 117.341 157.042 117.306C156.765 117.263 156.509 117.241 156.275 117.241C155.972 117.241 155.716 117.315 155.508 117.462C155.309 117.609 155.209 117.8 155.209 118.034C155.218 118.242 155.309 118.42 155.482 118.567C155.655 118.714 155.855 118.849 156.08 118.97C156.314 119.083 156.57 119.208 156.847 119.347C157.133 119.486 157.397 119.642 157.64 119.815C157.891 119.988 158.095 120.196 158.251 120.439C158.407 120.682 158.489 120.972 158.498 121.31C158.489 121.674 158.407 121.977 158.251 122.22C158.104 122.454 157.909 122.645 157.666 122.792C157.432 122.931 157.176 123.026 156.899 123.078C156.622 123.139 156.362 123.169 156.119 123.169C155.807 123.169 155.482 123.152 155.144 123.117C154.815 123.082 154.459 123.009 154.078 122.896L154.273 121.96C154.663 122.064 155.018 122.142 155.339 122.194C155.66 122.237 155.924 122.259 156.132 122.259C156.288 122.259 156.44 122.242 156.587 122.207C156.743 122.172 156.882 122.125 157.003 122.064C157.124 121.995 157.22 121.908 157.289 121.804C157.367 121.7 157.406 121.583 157.406 121.453C157.397 121.21 157.315 121.007 157.159 120.842C157.003 120.669 156.799 120.517 156.548 120.387C156.305 120.248 156.041 120.114 155.755 119.984C155.478 119.845 155.213 119.689 154.962 119.516C154.719 119.334 154.516 119.122 154.351 118.879C154.186 118.628 154.104 118.32 154.104 117.956C154.104 117.696 154.169 117.466 154.299 117.267C154.438 117.059 154.611 116.89 154.819 116.76C155.036 116.621 155.27 116.517 155.521 116.448C155.781 116.37 156.032 116.331 156.275 116.331C156.526 116.331 156.808 116.353 157.12 116.396C157.432 116.431 157.792 116.5 158.199 116.604L158.017 117.527Z" fill="#828282"/>
<path d="M59.376 92.784C61.1253 91.3973 62.6933 90.0427 64.08 88.72C64.6773 88.1653 65.2533 87.5893 65.808 86.992C66.384 86.3947 66.896 85.808 67.344 85.232C67.792 84.656 68.144 84.112 68.4 83.6C68.6773 83.0667 68.816 82.5867 68.816 82.16C68.816 81.4773 68.592 80.9227 68.144 80.496C67.7173 80.048 66.864 79.824 65.584 79.824C64.9227 79.824 64.2827 79.8773 63.664 79.984C63.0453 80.0907 62.4907 80.1973 62 80.304C61.424 80.4533 60.8693 80.6133 60.336 80.784L59.568 78.736C60.1227 78.5227 60.752 78.3307 61.456 78.16C62.032 78.0107 62.704 77.8827 63.472 77.776C64.2613 77.648 65.0933 77.584 65.968 77.584C66.672 77.584 67.3547 77.6587 68.016 77.808C68.6987 77.936 69.296 78.1707 69.808 78.512C70.3413 78.832 70.7573 79.2693 71.056 79.824C71.376 80.3787 71.536 81.0827 71.536 81.936C71.536 82.4267 71.4293 82.9493 71.216 83.504C71.0027 84.0373 70.7253 84.5813 70.384 85.136C70.064 85.6693 69.68 86.2133 69.232 86.768C68.8053 87.3013 68.368 87.8133 67.92 88.304C66.8747 89.456 65.68 90.5973 64.336 91.728C64.848 91.7067 65.3813 91.6853 65.936 91.664C66.4267 91.6427 66.9813 91.632 67.6 91.632C68.24 91.6107 68.9013 91.6 69.584 91.6H72.016V94H59.376V92.784ZM77.0185 77.904H87.1625V80.144H79.3865L78.8105 87.28C79.0452 87.216 79.2905 87.1627 79.5465 87.12C79.8025 87.056 80.0905 87.0133 80.4105 86.992C80.7305 86.9493 81.0825 86.928 81.4665 86.928C83.4718 86.928 85.0612 87.4613 86.2345 88.528C87.4078 89.5947 87.9945 91.1947 87.9945 93.328C87.9945 94.7147 87.7812 95.856 87.3545 96.752C86.9278 97.648 86.3625 98.352 85.6585 98.864C84.9545 99.376 84.1545 99.728 83.2585 99.92C82.3838 100.133 81.4878 100.24 80.5705 100.24C78.4798 100.197 76.4318 99.6107 74.4265 98.48L75.2905 96.336C77.3385 97.4453 79.1092 98 80.6025 98C82.2665 98 83.4612 97.5947 84.1865 96.784C84.9118 95.9947 85.2745 94.8427 85.2745 93.328C85.2745 92.7093 85.1998 92.144 85.0505 91.632C84.9012 91.12 84.6665 90.6827 84.3465 90.32C84.0265 89.9573 83.5998 89.68 83.0665 89.488C82.5545 89.2747 81.9252 89.168 81.1785 89.168C80.6665 89.168 80.1758 89.2107 79.7065 89.296C79.2372 89.36 78.7998 89.4453 78.3945 89.552C78.0105 89.6587 77.6372 89.7867 77.2745 89.936L76.0265 89.744L77.0185 77.904ZM93.6318 86C93.6318 86.768 93.7491 87.5147 93.9838 88.24C94.2184 88.944 94.5704 89.5627 95.0398 90.096C95.5091 90.6293 96.0744 91.056 96.7358 91.376C97.3971 91.696 98.1651 91.856 99.0398 91.856C99.8931 91.856 100.65 91.696 101.312 91.376C101.973 91.056 102.528 90.6293 102.976 90.096C103.445 89.5627 103.797 88.944 104.032 88.24C104.266 87.5147 104.384 86.768 104.384 86C104.384 85.2107 104.266 84.464 104.032 83.76C103.797 83.0347 103.445 82.4053 102.976 81.872C102.528 81.3387 101.973 80.9227 101.312 80.624C100.65 80.304 99.8931 80.144 99.0398 80.144C98.1651 80.144 97.3971 80.304 96.7358 80.624C96.0744 80.9227 95.5091 81.3387 95.0398 81.872C94.5704 82.4053 94.2184 83.0347 93.9838 83.76C93.7491 84.464 93.6318 85.2107 93.6318 86ZM90.9118 86C90.9118 84.8267 91.1144 83.728 91.5198 82.704C91.9251 81.68 92.4904 80.7947 93.2158 80.048C93.9411 79.28 94.7944 78.6827 95.7758 78.256C96.7784 77.808 97.8664 77.584 99.0398 77.584C100.192 77.584 101.258 77.808 102.24 78.256C103.242 78.6827 104.096 79.28 104.8 80.048C105.525 80.7947 106.09 81.68 106.496 82.704C106.901 83.728 107.104 84.8267 107.104 86C107.104 87.152 106.901 88.24 106.496 89.264C106.09 90.288 105.525 91.184 104.8 91.952C104.096 92.72 103.242 93.328 102.24 93.776C101.258 94.2027 100.192 94.416 99.0398 94.416C97.8664 94.416 96.7784 94.2027 95.7758 93.776C94.7944 93.328 93.9411 92.72 93.2158 91.952C92.4904 91.184 91.9251 90.288 91.5198 89.264C91.1144 88.24 90.9118 87.152 90.9118 86ZM112.944 86C112.944 86.768 113.062 87.5147 113.296 88.24C113.531 88.944 113.883 89.5627 114.352 90.096C114.822 90.6293 115.387 91.056 116.048 91.376C116.71 91.696 117.478 91.856 118.352 91.856C119.206 91.856 119.963 91.696 120.624 91.376C121.286 91.056 121.84 90.6293 122.288 90.096C122.758 89.5627 123.11 88.944 123.344 88.24C123.579 87.5147 123.696 86.768 123.696 86C123.696 85.2107 123.579 84.464 123.344 83.76C123.11 83.0347 122.758 82.4053 122.288 81.872C121.84 81.3387 121.286 80.9227 120.624 80.624C119.963 80.304 119.206 80.144 118.352 80.144C117.478 80.144 116.71 80.304 116.048 80.624C115.387 80.9227 114.822 81.3387 114.352 81.872C113.883 82.4053 113.531 83.0347 113.296 83.76C113.062 84.464 112.944 85.2107 112.944 86ZM110.224 86C110.224 84.8267 110.427 83.728 110.832 82.704C111.238 81.68 111.803 80.7947 112.528 80.048C113.254 79.28 114.107 78.6827 115.088 78.256C116.091 77.808 117.179 77.584 118.352 77.584C119.504 77.584 120.571 77.808 121.552 78.256C122.555 78.6827 123.408 79.28 124.112 80.048C124.838 80.7947 125.403 81.68 125.808 82.704C126.214 83.728 126.416 84.8267 126.416 86C126.416 87.152 126.214 88.24 125.808 89.264C125.403 90.288 124.838 91.184 124.112 91.952C123.408 92.72 122.555 93.328 121.552 93.776C120.571 94.2027 119.504 94.416 118.352 94.416C117.179 94.416 116.091 94.2027 115.088 93.776C114.107 93.328 113.254 92.72 112.528 91.952C111.803 91.184 111.238 90.288 110.832 89.264C110.427 88.24 110.224 87.152 110.224 86ZM132.257 86C132.257 86.768 132.374 87.5147 132.609 88.24C132.843 88.944 133.195 89.5627 133.665 90.096C134.134 90.6293 134.699 91.056 135.361 91.376C136.022 91.696 136.79 91.856 137.665 91.856C138.518 91.856 139.275 91.696 139.937 91.376C140.598 91.056 141.153 90.6293 141.601 90.096C142.07 89.5627 142.422 88.944 142.657 88.24C142.891 87.5147 143.009 86.768 143.009 86C143.009 85.2107 142.891 84.464 142.657 83.76C142.422 83.0347 142.07 82.4053 141.601 81.872C141.153 81.3387 140.598 80.9227 139.937 80.624C139.275 80.304 138.518 80.144 137.665 80.144C136.79 80.144 136.022 80.304 135.361 80.624C134.699 80.9227 134.134 81.3387 133.665 81.872C133.195 82.4053 132.843 83.0347 132.609 83.76C132.374 84.464 132.257 85.2107 132.257 86ZM129.537 86C129.537 84.8267 129.739 83.728 130.145 82.704C130.55 81.68 131.115 80.7947 131.841 80.048C132.566 79.28 133.419 78.6827 134.401 78.256C135.403 77.808 136.491 77.584 137.665 77.584C138.817 77.584 139.883 77.808 140.865 78.256C141.867 78.6827 142.721 79.28 143.425 80.048C144.15 80.7947 144.715 81.68 145.121 82.704C145.526 83.728 145.729 84.8267 145.729 86C145.729 87.152 145.526 88.24 145.121 89.264C144.715 90.288 144.15 91.184 143.425 91.952C142.721 92.72 141.867 93.328 140.865 93.776C139.883 94.2027 138.817 94.416 137.665 94.416C136.491 94.416 135.403 94.2027 134.401 93.776C133.419 93.328 132.566 92.72 131.841 91.952C131.115 91.184 130.55 90.288 130.145 89.264C129.739 88.24 129.537 87.152 129.537 86ZM156.204 87.868H154.902V86.958H156.204C156.204 86.3047 156.246 85.754 156.33 85.306C156.423 84.8487 156.568 84.48 156.764 84.2C156.96 83.9107 157.212 83.7053 157.52 83.584C157.828 83.4533 158.201 83.388 158.64 83.388C158.994 83.388 159.326 83.4487 159.634 83.57C159.942 83.682 160.189 83.822 160.376 83.99L159.886 84.83C159.699 84.69 159.503 84.578 159.298 84.494C159.102 84.41 158.887 84.368 158.654 84.368C158.346 84.368 158.103 84.438 157.926 84.578C157.748 84.7087 157.613 84.8907 157.52 85.124C157.436 85.3573 157.38 85.6327 157.352 85.95C157.333 86.258 157.324 86.594 157.324 86.958H159.074V87.868H157.324V94H156.204V87.868ZM164.605 87.98C164.446 87.9427 164.227 87.9053 163.947 87.868C163.667 87.8213 163.382 87.798 163.093 87.798C162.673 87.798 162.327 87.882 162.057 88.05C161.795 88.218 161.59 88.4373 161.441 88.708C161.291 88.9693 161.189 89.2633 161.133 89.59C161.077 89.9073 161.049 90.22 161.049 90.528C161.049 91.004 161.109 91.4147 161.231 91.76C161.352 92.096 161.511 92.3713 161.707 92.586C161.912 92.8007 162.145 92.9593 162.407 93.062C162.668 93.1553 162.943 93.202 163.233 93.202C163.429 93.202 163.615 93.1927 163.793 93.174C163.979 93.146 164.147 93.118 164.297 93.09C164.455 93.0527 164.605 93.0107 164.745 92.964L164.969 93.902C164.773 93.958 164.591 94.0047 164.423 94.042C164.255 94.0793 164.054 94.112 163.821 94.14C163.597 94.168 163.354 94.182 163.093 94.182C162.579 94.182 162.122 94.1167 161.721 93.986C161.319 93.8553 160.979 93.6453 160.699 93.356C160.428 93.0667 160.218 92.6887 160.069 92.222C159.929 91.7553 159.859 91.186 159.859 90.514C159.859 89.8607 159.947 89.3007 160.125 88.834C160.311 88.358 160.554 87.9753 160.853 87.686C161.151 87.3873 161.492 87.168 161.875 87.028C162.267 86.888 162.673 86.818 163.093 86.818C163.317 86.818 163.531 86.832 163.737 86.86C163.951 86.8787 164.138 86.902 164.297 86.93C164.483 86.9673 164.661 87.0047 164.829 87.042L164.605 87.98ZM166.95 87.868H165.648V86.958H166.95C166.95 86.3047 166.992 85.754 167.076 85.306C167.169 84.8487 167.314 84.48 167.51 84.2C167.706 83.9107 167.958 83.7053 168.266 83.584C168.574 83.4533 168.947 83.388 169.386 83.388C169.741 83.388 170.072 83.4487 170.38 83.57C170.688 83.682 170.935 83.822 171.122 83.99L170.632 84.83C170.445 84.69 170.249 84.578 170.044 84.494C169.848 84.41 169.633 84.368 169.4 84.368C169.092 84.368 168.849 84.438 168.672 84.578C168.495 84.7087 168.359 84.8907 168.266 85.124C168.182 85.3573 168.126 85.6327 168.098 85.95C168.079 86.258 168.07 86.594 168.07 86.958H169.82V87.868H168.07V94H166.95V87.868ZM174.944 90.766C174.757 90.7753 174.58 90.7847 174.412 90.794C174.244 90.8033 174.076 90.8173 173.908 90.836C173.749 90.8453 173.604 90.8593 173.474 90.878C172.802 90.962 172.326 91.1113 172.046 91.326C171.766 91.5313 171.626 91.83 171.626 92.222C171.626 92.5487 171.724 92.796 171.92 92.964C172.125 93.1227 172.391 93.202 172.718 93.202C173.166 93.202 173.562 93.1273 173.908 92.978C174.262 92.8193 174.608 92.614 174.944 92.362V90.766ZM174.93 93.342C174.491 93.594 174.08 93.7993 173.698 93.958C173.324 94.1073 172.918 94.182 172.48 94.182C171.854 94.182 171.355 94.0327 170.982 93.734C170.618 93.426 170.436 92.922 170.436 92.222C170.436 91.858 170.529 91.5407 170.716 91.27C170.902 90.9993 171.145 90.7753 171.444 90.598C171.752 90.4113 172.097 90.2667 172.48 90.164C172.862 90.0613 173.254 89.996 173.656 89.968C173.824 89.9493 174.043 89.9353 174.314 89.926C174.584 89.9073 174.794 89.8933 174.944 89.884C174.944 89.5573 174.934 89.268 174.916 89.016C174.897 88.7547 174.841 88.5353 174.748 88.358C174.654 88.1713 174.514 88.0313 174.328 87.938C174.15 87.8447 173.894 87.798 173.558 87.798C173.287 87.798 173.026 87.8167 172.774 87.854C172.522 87.882 172.298 87.9147 172.102 87.952C171.868 87.9987 171.654 88.05 171.458 88.106L171.234 87.14C171.467 87.084 171.719 87.0327 171.99 86.986C172.223 86.9393 172.494 86.902 172.802 86.874C173.11 86.8367 173.441 86.818 173.796 86.818C174.272 86.818 174.654 86.888 174.944 87.028C175.242 87.168 175.471 87.3593 175.63 87.602C175.798 87.8353 175.91 88.106 175.966 88.414C176.031 88.7127 176.064 89.03 176.064 89.366V92.726C176.064 92.8567 176.064 92.9967 176.064 93.146C176.073 93.286 176.082 93.426 176.092 93.566C176.11 93.706 176.129 93.8507 176.148 94L175.07 94.112L174.93 93.342Z" fill="#FC3A3A"/>
<path d="M60.772 51.752H58.204V50.816H64.348V51.752H61.78V59H60.772V51.752ZM64.8933 54.908C64.8933 54.132 65.0133 53.476 65.2533 52.94C65.5013 52.404 65.8133 51.972 66.1893 51.644C66.5733 51.316 66.9973 51.08 67.4613 50.936C67.9333 50.784 68.3933 50.708 68.8413 50.708C69.2893 50.708 69.7453 50.772 70.2093 50.9C70.6813 51.02 71.1053 51.24 71.4813 51.56C71.8653 51.872 72.1773 52.3 72.4173 52.844C72.6653 53.388 72.7893 54.08 72.7893 54.92C72.7893 55.704 72.6653 56.364 72.4173 56.9C72.1773 57.436 71.8653 57.872 71.4813 58.208C71.1053 58.544 70.6813 58.788 70.2093 58.94C69.7453 59.084 69.2893 59.156 68.8413 59.156C68.3933 59.156 67.9333 59.084 67.4613 58.94C66.9973 58.796 66.5733 58.56 66.1893 58.232C65.8133 57.904 65.5013 57.468 65.2533 56.924C65.0133 56.38 64.8933 55.708 64.8933 54.908ZM71.6493 54.968C71.6493 53.888 71.3973 53.068 70.8932 52.508C70.3973 51.948 69.7293 51.668 68.8893 51.668C68.4653 51.668 68.0773 51.736 67.7253 51.872C67.3813 52 67.0813 52.196 66.8253 52.46C66.5773 52.724 66.3813 53.056 66.2373 53.456C66.1013 53.848 66.0333 54.312 66.0333 54.848C66.0333 55.928 66.2813 56.756 66.7773 57.332C67.2813 57.908 67.9533 58.196 68.7933 58.196C69.2093 58.196 69.5933 58.132 69.9453 58.004C70.2973 57.868 70.5973 57.664 70.8453 57.392C71.1013 57.12 71.2973 56.784 71.4333 56.384C71.5773 55.984 71.6493 55.512 71.6493 54.968ZM75.9478 51.752H73.3798V50.816H79.5238V51.752H76.9558V59H75.9478V51.752ZM82.1883 50.816H83.4363L86.2443 59H85.2003L84.4803 56.816H81.1563L80.4243 59H79.3803L82.1883 50.816ZM84.1563 55.856L82.8363 51.776H82.8003L81.4683 55.856H84.1563ZM87.5326 50.816H88.5406V58.04H92.2606V59H87.5326V50.816ZM97.271 58.076H98.891C99.331 58.076 99.743 58.02 100.127 57.908C100.519 57.796 100.859 57.616 101.147 57.368C101.443 57.112 101.675 56.78 101.843 56.372C102.011 55.964 102.095 55.468 102.095 54.884C102.095 54.34 102.019 53.872 101.867 53.48C101.715 53.08 101.499 52.752 101.219 52.496C100.947 52.24 100.611 52.052 100.211 51.932C99.819 51.804 99.379 51.74 98.891 51.74H97.271V58.076ZM96.263 50.816H98.891C99.539 50.816 100.123 50.896 100.643 51.056C101.171 51.216 101.623 51.464 101.999 51.8C102.375 52.136 102.663 52.56 102.863 53.072C103.071 53.584 103.175 54.188 103.175 54.884C103.175 55.588 103.063 56.2 102.839 56.72C102.615 57.232 102.311 57.66 101.927 58.004C101.543 58.34 101.091 58.592 100.571 58.76C100.051 58.92 99.491 59 98.891 59H96.263V50.816ZM105.789 50.816V55.928C105.789 56.384 105.853 56.76 105.981 57.056C106.117 57.344 106.293 57.572 106.509 57.74C106.725 57.908 106.969 58.024 107.241 58.088C107.521 58.152 107.805 58.184 108.093 58.184C108.381 58.184 108.661 58.152 108.933 58.088C109.205 58.024 109.449 57.908 109.665 57.74C109.881 57.572 110.053 57.344 110.181 57.056C110.309 56.76 110.373 56.384 110.373 55.928V50.816H111.381V56.18C111.381 56.596 111.301 56.984 111.141 57.344C110.989 57.704 110.769 58.02 110.481 58.292C110.193 58.556 109.845 58.764 109.437 58.916C109.029 59.068 108.577 59.144 108.081 59.144C107.017 59.144 106.201 58.888 105.633 58.376C105.065 57.856 104.781 57.124 104.781 56.18V50.816H105.789ZM107.961 47.708H108.441L110.061 49.352L109.581 49.748L108.201 48.584L106.821 49.748L106.341 49.352L107.961 47.708Z" fill="url(#paint0_radial_61_10523)"/>
<rect x="142" y="140" width="134" height="47" rx="8" fill="#F7A400"/>
<path d="M163.836 156.724H166.86C167.52 156.724 168.12 156.784 168.66 156.904C169.212 157.012 169.68 157.204 170.064 157.48C170.448 157.744 170.742 158.098 170.946 158.542C171.15 158.986 171.252 159.544 171.252 160.216C171.24 160.96 171.114 161.566 170.874 162.034C170.634 162.49 170.34 162.862 169.992 163.15C169.644 163.426 169.242 163.63 168.786 163.762V163.798C168.834 163.846 168.906 163.936 169.002 164.068C169.11 164.188 169.2 164.296 169.272 164.392L172.746 169H170.964L167.4 164.122H165.348V169H163.836V156.724ZM169.722 160.468C169.722 159.964 169.656 159.556 169.524 159.244C169.404 158.92 169.218 158.674 168.966 158.506C168.726 158.338 168.426 158.224 168.066 158.164C167.706 158.104 167.298 158.074 166.842 158.074H165.348V162.772H167.13C167.598 162.772 167.994 162.712 168.318 162.592C168.642 162.472 168.906 162.31 169.11 162.106C169.314 161.89 169.464 161.644 169.56 161.368C169.656 161.092 169.71 160.792 169.722 160.468ZM180.51 168.784C180.234 168.868 179.946 168.94 179.646 169C179.358 169.06 179.034 169.114 178.674 169.162C178.326 169.21 177.96 169.234 177.576 169.234C176.976 169.234 176.418 169.15 175.902 168.982C175.386 168.814 174.936 168.544 174.552 168.172C174.168 167.8 173.862 167.32 173.634 166.732C173.418 166.132 173.31 165.4 173.31 164.536C173.31 163.756 173.418 163.072 173.634 162.484C173.85 161.884 174.144 161.386 174.516 160.99C174.9 160.582 175.344 160.276 175.848 160.072C176.364 159.868 176.922 159.766 177.522 159.766C178.11 159.766 178.62 159.88 179.052 160.108C179.484 160.336 179.838 160.648 180.114 161.044C180.402 161.428 180.612 161.884 180.744 162.412C180.888 162.928 180.96 163.474 180.96 164.05L180.69 164.842H174.876C174.876 165.214 174.924 165.586 175.02 165.958C175.116 166.33 175.278 166.666 175.506 166.966C175.746 167.266 176.052 167.512 176.424 167.704C176.808 167.884 177.282 167.974 177.846 167.974C178.206 167.974 178.536 167.956 178.836 167.92C179.136 167.872 179.394 167.824 179.61 167.776C179.838 167.716 180.048 167.65 180.24 167.578L180.51 168.784ZM179.466 163.69C179.466 163.606 179.448 163.42 179.412 163.132C179.376 162.844 179.292 162.544 179.16 162.232C179.028 161.92 178.824 161.644 178.548 161.404C178.272 161.152 177.906 161.026 177.45 161.026C176.946 161.026 176.532 161.134 176.208 161.35C175.884 161.554 175.626 161.8 175.434 162.088C175.242 162.376 175.11 162.67 175.038 162.97C174.966 163.27 174.93 163.51 174.93 163.69H179.466ZM182.937 161.584C182.937 161.176 182.901 160.684 182.829 160.108L184.179 159.928L184.377 161.062C184.701 160.822 185.019 160.612 185.331 160.432C185.643 160.252 185.979 160.096 186.339 159.964C186.699 159.832 187.065 159.766 187.437 159.766C188.037 159.766 188.511 159.874 188.859 160.09C189.207 160.294 189.465 160.648 189.633 161.152C190.125 160.804 190.635 160.486 191.163 160.198C191.703 159.91 192.261 159.766 192.837 159.766C193.281 159.766 193.659 159.826 193.971 159.946C194.283 160.054 194.535 160.24 194.727 160.504C194.919 160.768 195.057 161.116 195.141 161.548C195.225 161.98 195.267 162.52 195.267 163.168V169H193.827V163.33C193.827 162.97 193.821 162.652 193.809 162.376C193.797 162.088 193.755 161.848 193.683 161.656C193.611 161.452 193.491 161.296 193.323 161.188C193.167 161.08 192.939 161.026 192.639 161.026C192.363 161.026 192.099 161.068 191.847 161.152C191.607 161.224 191.355 161.332 191.091 161.476C190.827 161.62 190.419 161.914 189.867 162.358V169H188.427V163.33C188.427 162.97 188.421 162.652 188.409 162.376C188.397 162.088 188.355 161.848 188.283 161.656C188.211 161.452 188.091 161.296 187.923 161.188C187.767 161.08 187.539 161.026 187.239 161.026C186.927 161.026 186.603 161.092 186.267 161.224C185.931 161.356 185.613 161.512 185.313 161.692C185.013 161.872 184.701 162.082 184.377 162.322V169H182.937V161.584ZM197.79 155.518L199.23 155.356V160.72C199.494 160.54 199.77 160.384 200.058 160.252C200.298 160.132 200.568 160.024 200.868 159.928C201.168 159.82 201.468 159.766 201.768 159.766C202.26 159.766 202.722 159.862 203.154 160.054C203.598 160.246 203.982 160.534 204.306 160.918C204.642 161.302 204.906 161.788 205.098 162.376C205.29 162.964 205.386 163.66 205.386 164.464C205.386 165.352 205.26 166.102 205.008 166.714C204.768 167.314 204.438 167.8 204.018 168.172C203.61 168.544 203.142 168.814 202.614 168.982C202.086 169.15 201.546 169.234 200.994 169.234C200.442 169.234 199.962 169.192 199.554 169.108C199.158 169.036 198.828 168.952 198.564 168.856C198.252 168.736 197.994 168.604 197.79 168.46V155.518ZM199.23 167.668C199.386 167.728 199.554 167.782 199.734 167.83C199.914 167.866 200.106 167.902 200.31 167.938C200.526 167.962 200.754 167.974 200.994 167.974C201.546 167.974 202.008 167.896 202.38 167.74C202.752 167.584 203.046 167.356 203.262 167.056C203.478 166.756 203.628 166.396 203.712 165.976C203.808 165.544 203.856 165.064 203.856 164.536C203.856 164.116 203.808 163.696 203.712 163.276C203.628 162.856 203.49 162.484 203.298 162.16C203.106 161.824 202.866 161.554 202.578 161.35C202.302 161.134 201.978 161.026 201.606 161.026C201.354 161.026 201.09 161.08 200.814 161.188C200.538 161.284 200.28 161.398 200.04 161.53C199.764 161.674 199.494 161.836 199.23 162.016V167.668ZM208.519 164.518C208.519 165.682 208.777 166.552 209.293 167.128C209.821 167.692 210.529 167.974 211.417 167.974C212.293 167.974 212.977 167.692 213.469 167.128C213.961 166.564 214.207 165.718 214.207 164.59C214.207 163.39 213.943 162.496 213.415 161.908C212.899 161.32 212.191 161.026 211.291 161.026C210.391 161.026 209.701 161.32 209.221 161.908C208.753 162.484 208.519 163.354 208.519 164.518ZM206.989 164.5C206.989 163.588 207.133 162.832 207.421 162.232C207.709 161.62 208.075 161.134 208.519 160.774C208.963 160.402 209.437 160.144 209.941 160C210.457 159.844 210.943 159.766 211.399 159.766C211.831 159.766 212.299 159.838 212.803 159.982C213.319 160.114 213.793 160.36 214.225 160.72C214.657 161.068 215.017 161.542 215.305 162.142C215.593 162.73 215.737 163.48 215.737 164.392C215.737 165.34 215.587 166.126 215.287 166.75C214.999 167.374 214.633 167.872 214.189 168.244C213.745 168.604 213.265 168.856 212.749 169C212.233 169.156 211.753 169.234 211.309 169.234C210.853 169.234 210.373 169.162 209.869 169.018C209.365 168.874 208.897 168.628 208.465 168.28C208.045 167.92 207.691 167.434 207.403 166.822C207.127 166.21 206.989 165.436 206.989 164.5ZM223.247 168.01H223.211C223.103 168.094 222.947 168.208 222.743 168.352C222.539 168.484 222.305 168.616 222.041 168.748C221.777 168.88 221.483 168.994 221.159 169.09C220.847 169.186 220.529 169.234 220.205 169.234C219.761 169.234 219.383 169.174 219.071 169.054C218.759 168.946 218.507 168.76 218.315 168.496C218.123 168.232 217.985 167.884 217.901 167.452C217.817 167.02 217.775 166.48 217.775 165.832V159.946H219.215V165.616C219.215 165.976 219.221 166.3 219.233 166.588C219.245 166.876 219.287 167.122 219.359 167.326C219.431 167.53 219.545 167.692 219.701 167.812C219.869 167.92 220.103 167.974 220.403 167.974C220.715 167.974 221.039 167.908 221.375 167.776C221.711 167.644 222.017 167.494 222.293 167.326C222.617 167.134 222.935 166.918 223.247 166.678V159.946H224.687V167.83C224.699 168.262 224.729 168.652 224.777 169L223.355 169.144L223.247 168.01ZM227.322 161.404C227.322 161.128 227.292 160.696 227.232 160.108L228.564 159.928L228.708 161.242H228.726C228.942 160.966 229.152 160.726 229.356 160.522C229.56 160.318 229.77 160.144 229.986 160C230.214 159.844 230.43 159.766 230.634 159.766C230.91 159.754 231.294 159.784 231.786 159.856L231.462 161.242C231.066 161.17 230.79 161.14 230.634 161.152C230.43 161.152 230.214 161.248 229.986 161.44C229.758 161.632 229.56 161.836 229.392 162.052C229.176 162.316 228.966 162.616 228.762 162.952V169H227.322V161.404ZM238.264 161.422C237.76 161.266 237.31 161.164 236.914 161.116C236.53 161.056 236.176 161.026 235.852 161.026C235.432 161.026 235.078 161.128 234.79 161.332C234.514 161.536 234.376 161.8 234.376 162.124C234.388 162.412 234.514 162.658 234.754 162.862C234.994 163.066 235.27 163.252 235.582 163.42C235.906 163.576 236.26 163.75 236.644 163.942C237.04 164.134 237.406 164.35 237.742 164.59C238.09 164.83 238.372 165.118 238.588 165.454C238.804 165.79 238.918 166.192 238.93 166.66C238.918 167.164 238.804 167.584 238.588 167.92C238.384 168.244 238.114 168.508 237.778 168.712C237.454 168.904 237.1 169.036 236.716 169.108C236.332 169.192 235.972 169.234 235.636 169.234C235.204 169.234 234.754 169.21 234.286 169.162C233.83 169.114 233.338 169.012 232.81 168.856L233.08 167.56C233.62 167.704 234.112 167.812 234.556 167.884C235 167.944 235.366 167.974 235.654 167.974C235.87 167.974 236.08 167.95 236.284 167.902C236.5 167.854 236.692 167.788 236.86 167.704C237.028 167.608 237.16 167.488 237.256 167.344C237.364 167.2 237.418 167.038 237.418 166.858C237.406 166.522 237.292 166.24 237.076 166.012C236.86 165.772 236.578 165.562 236.23 165.382C235.894 165.19 235.528 165.004 235.132 164.824C234.748 164.632 234.382 164.416 234.034 164.176C233.698 163.924 233.416 163.63 233.188 163.294C232.96 162.946 232.846 162.52 232.846 162.016C232.846 161.656 232.936 161.338 233.116 161.062C233.308 160.774 233.548 160.54 233.836 160.36C234.136 160.168 234.46 160.024 234.808 159.928C235.168 159.82 235.516 159.766 235.852 159.766C236.2 159.766 236.59 159.796 237.022 159.856C237.454 159.904 237.952 160 238.516 160.144L238.264 161.422ZM247.57 168.784C247.294 168.868 247.006 168.94 246.706 169C246.418 169.06 246.094 169.114 245.734 169.162C245.386 169.21 245.02 169.234 244.636 169.234C244.036 169.234 243.478 169.15 242.962 168.982C242.446 168.814 241.996 168.544 241.612 168.172C241.228 167.8 240.922 167.32 240.694 166.732C240.478 166.132 240.37 165.4 240.37 164.536C240.37 163.756 240.478 163.072 240.694 162.484C240.91 161.884 241.204 161.386 241.576 160.99C241.96 160.582 242.404 160.276 242.908 160.072C243.424 159.868 243.982 159.766 244.582 159.766C245.17 159.766 245.68 159.88 246.112 160.108C246.544 160.336 246.898 160.648 247.174 161.044C247.462 161.428 247.672 161.884 247.804 162.412C247.948 162.928 248.02 163.474 248.02 164.05L247.75 164.842H241.936C241.936 165.214 241.984 165.586 242.08 165.958C242.176 166.33 242.338 166.666 242.566 166.966C242.806 167.266 243.112 167.512 243.484 167.704C243.868 167.884 244.342 167.974 244.906 167.974C245.266 167.974 245.596 167.956 245.896 167.92C246.196 167.872 246.454 167.824 246.67 167.776C246.898 167.716 247.108 167.65 247.3 167.578L247.57 168.784ZM246.526 163.69C246.526 163.606 246.508 163.42 246.472 163.132C246.436 162.844 246.352 162.544 246.22 162.232C246.088 161.92 245.884 161.644 245.608 161.404C245.332 161.152 244.966 161.026 244.51 161.026C244.006 161.026 243.592 161.134 243.268 161.35C242.944 161.554 242.686 161.8 242.494 162.088C242.302 162.376 242.17 162.67 242.098 162.97C242.026 163.27 241.99 163.51 241.99 163.69H246.526ZM249.998 161.404C249.998 161.128 249.968 160.696 249.908 160.108L251.24 159.928L251.384 161.242H251.402C251.618 160.966 251.828 160.726 252.032 160.522C252.236 160.318 252.446 160.144 252.662 160C252.89 159.844 253.106 159.766 253.31 159.766C253.586 159.754 253.97 159.784 254.462 159.856L254.138 161.242C253.742 161.17 253.466 161.14 253.31 161.152C253.106 161.152 252.89 161.248 252.662 161.44C252.434 161.632 252.236 161.836 252.068 162.052C251.852 162.316 251.642 162.616 251.438 162.952V169H249.998V161.404Z" fill="white"/>
<rect x="11" y="128" width="42" height="42" rx="8" fill="#FFF1D5"/>
<rect x="18" y="140" width="60" height="60" rx="16" fill="#ACAEFF"/>
<path d="M52.2113 163.12C50.0673 163.792 48.4033 164.6 47.2193 165.544C46.0353 166.472 45.2273 167.528 44.7953 168.712L45.6353 168.64C45.8913 168.608 46.1793 168.584 46.4993 168.568C46.8193 168.552 47.1633 168.544 47.5313 168.544C48.1553 168.544 48.7793 168.632 49.4033 168.808C50.0273 168.968 50.5793 169.24 51.0593 169.624C51.5553 169.992 51.9553 170.48 52.2593 171.088C52.5793 171.696 52.7393 172.448 52.7393 173.344C52.7393 174.112 52.5953 174.8 52.3073 175.408C52.0353 176.016 51.6593 176.536 51.1793 176.968C50.6993 177.4 50.1313 177.736 49.4753 177.976C48.8353 178.2 48.1553 178.312 47.4353 178.312C45.8353 178.312 44.5953 177.792 43.7153 176.752C42.8513 175.696 42.4193 173.968 42.4193 171.568C42.4193 170.448 42.5633 169.44 42.8513 168.544C43.1553 167.648 43.5473 166.856 44.0273 166.168C44.5233 165.464 45.0833 164.856 45.7073 164.344C46.3473 163.816 47.0033 163.368 47.6753 163C48.3633 162.616 49.0433 162.296 49.7153 162.04C50.4033 161.784 51.0353 161.576 51.6113 161.416L52.2113 163.12ZM47.5793 176.632C47.9633 176.632 48.3393 176.576 48.7073 176.464C49.0913 176.352 49.4273 176.168 49.7153 175.912C50.0193 175.656 50.2593 175.328 50.4353 174.928C50.6113 174.512 50.6993 174 50.6993 173.392C50.6993 172.352 50.4113 171.568 49.8353 171.04C49.2593 170.496 48.3953 170.224 47.2433 170.224C46.8753 170.224 46.5233 170.232 46.1873 170.248C45.8673 170.264 45.3233 170.312 44.5553 170.392C44.4753 171.128 44.4433 171.592 44.4593 171.784C44.5073 173.464 44.7793 174.696 45.2753 175.48C45.7713 176.248 46.5393 176.632 47.5793 176.632Z" fill="white"/>
<defs>
<radialGradient id="paint0_radial_61_10523" cx="0" cy="0" r="1" gradientUnits="userSpaceOnUse" gradientTransform="translate(85.5 55) rotate(90) scale(7 27.5)">
<stop offset="0.415" stop-color="#3E79E5"/>
<stop offset="1" stop-color="#003465"/>
</radialGradient>
</defs>
</svg>
